{
  "source": "C:\\Users\\Peter\\Desktop\\stuff\\MIUN\\quantitative_research\\video_compression\\videos\\BVI-HD\\BVI-HD_CDVL_videos\\ORIG\\SmokeGuns_1920x1080_60fps.mp4",
  "output": "C:\\Users\\Peter\\Desktop\\stuff\\MIUN\\quantitative_research\\video_compression\\compressed_videos\\BVI-HD\\hevc\\1.5\\SmokeGuns_1920x1080_60fps_hevc.mp4",
  "codec": "hevc",
  "ok": "Input #0, mov,mp4,m4a,3gp,3g2,mj2, from 'C:\\Users\\Peter\\Desktop\\stuff\\MIUN\\quantitative_research\\video_compression\\videos\\BVI-HD\\BVI-HD_CDVL_videos\\ORIG\\SmokeGuns_1920x1080_60fps.mp4':\n  Metadata:\n    major_brand     : isom\n    minor_version   : 512\n    compatible_brands: isomiso2avc1mp41\n    encoder         : Lavf54.28.101\n  Duration: 00:00:05.00, start: 0.000000, bitrate: 384353 kb/s\n  Stream #0:0[0x1](und): Video: h264 (High 4:4:4 Predictive) (avc1 / 0x31637661), yuv420p(progressive), 1920x1080, 384348 kb/s, 60 fps, 60 tbr, 60 tbn (default)\n    Metadata:\n      handler_name    : VideoHandler\n      vendor_id       : [0][0][0][0]\n[out#0/mp4 @ 00000181fb0cacc0] Codec AVOption b:a (set bitrate (in bits/s)) has not been used for any stream. The most likely reason is either wrong type (e.g. a video option with no video streams) or that it is a private option of some decoder which was not actually used for any stream.\nStream mapping:\n  Stream #0:0 -> #0:0 (h264 (native) -> hevc (libx265))\nPress [q] to stop, [?] for help\n[libx265 @ 00000181fb6a0a80] Unknown option: \"aq-mode.\nx265 [info]: HEVC encoder version 4.1+190-8f11c33ac\nx265 [info]: build info [Windows][GCC 15.1.0][64 bit] 10bit\nx265 [info]: using cpu capabilities: MMX2 SSE2Fast LZCNT SSSE3 SSE4.2 AVX FMA3 BMI2 AVX2\nx265 [info]: Main 10 profile, Level-4.1 (Main tier)\nx265 [info]: Thread pool created using 12 threads\nx265 [info]: Slices                              : 1\nx265 [info]: frame threads / pool features       : 3 / wpp(17 rows)\nx265 [info]: Coding QT: max CU size, min CU size : 64 / 8\nx265 [info]: Residual QT: max TU size, max depth : 32 / 1 inter / 1 intra\nx265 [info]: ME / range / subpel / merge         : star / 57 / 3 / 3\nx265 [info]: Keyframe min / max / scenecut / bias  : 25 / 250 / 40 / 5.00 \nx265 [info]: Lookahead / bframes / badapt        : 25 / 4 / 2\nx265 [info]: b-pyramid / weightp / weightb       : 1 / 1 / 0\nx265 [info]: References / ref-limit  cu / depth  : 4 / on / on\nx265 [info]: AQ: mode / str / qg-size / cu-tree  : 2 / 1.0 / 32 / 1\nx265 [info]: Rate Control / qCompress            : ABR-1500 kbps / 0.60\nx265 [info]: VBV/HRD buffer / max-rate / init    : 1500 / 1500 / 0.750\nx265 [info]: tools: rect limit-modes rd=4 psy-rd=2.00 rdoq=2 psy-rdoq=1.00\nx265 [info]: tools: rskip mode=1 signhide tmvp strong-intra-smoothing lslices=4\nx265 [info]: tools: deblock sao dhdr10-info\nOutput #0, mp4, to 'C:\\Users\\Peter\\Desktop\\stuff\\MIUN\\quantitative_research\\video_compression\\compressed_videos\\BVI-HD\\hevc\\1.5\\SmokeGuns_1920x1080_60fps_hevc.mp4':\n  Metadata:\n    major_brand     : isom\n    minor_version   : 512\n    compatible_brands: isomiso2avc1mp41\n    encoder         : Lavf62.3.100\n  Stream #0:0(und): Video: hevc (hev1 / 0x31766568), yuv420p10le(tv, progressive), 1920x1080, q=2-31, 1500 kb/s, 60 fps, 15360 tbn (default)\n    Metadata:\n      encoder         : Lavc62.11.100 libx265\n      handler_name    : VideoHandler\n      vendor_id       : [0][0][0][0]\n    Side data:\n      cpb: bitrate max/min/avg: 1500000/0/1500000 buffer size: 1500000 vbv_delay: N/A\nframe=    0 fps=0.0 q=0.0 size=       0KiB time=N/A bitrate=N/A speed=N/A elapsed=0:00:01.12    \nframe=    0 fps=0.0 q=0.0 size=       0KiB time=N/A bitrate=N/A speed=N/A elapsed=0:00:01.74    \nframe=    0 fps=0.0 q=0.0 size=       0KiB time=N/A bitrate=N/A speed=N/A elapsed=0:00:02.30    \nframe=    0 fps=0.0 q=0.0 size=       0KiB time=N/A bitrate=N/A speed=N/A elapsed=0:00:02.84    \nframe=    0 fps=0.0 q=0.0 size=       0KiB time=N/A bitrate=N/A speed=N/A elapsed=0:00:03.41    \nframe=    0 fps=0.0 q=0.0 size=       0KiB time=N/A bitrate=N/A speed=N/A elapsed=0:00:03.92    \nframe=    0 fps=0.0 q=0.0 size=       0KiB time=N/A bitrate=N/A speed=N/A elapsed=0:00:04.45    \nframe=    0 fps=0.0 q=0.0 size=       0KiB time=N/A bitrate=N/A speed=N/A elapsed=0:00:04.97    \nframe=    0 fps=0.0 q=0.0 size=       0KiB time=N/A bitrate=N/A speed=N/A elapsed=0:00:05.50    \nframe=    0 fps=0.0 q=0.0 size=       0KiB time=N/A bitrate=N/A speed=N/A elapsed=0:00:06.08    \nframe=    0 fps=0.0 q=0.0 size=       0KiB time=N/A bitrate=N/A speed=N/A elapsed=0:00:06.60    \nframe=    0 fps=0.0 q=0.0 size=       0KiB time=N/A bitrate=N/A speed=N/A elapsed=0:00:07.11    \nframe=    0 fps=0.0 q=0.0 size=       0KiB time=N/A bitrate=N/A speed=N/A elapsed=0:00:07.65    \nframe=    0 fps=0.0 q=0.0 size=       0KiB time=N/A bitrate=N/A speed=N/A elapsed=0:00:08.17    \nframe=    0 fps=0.0 q=0.0 size=       0KiB time=N/A bitrate=N/A speed=N/A elapsed=0:00:08.71    \nframe=    0 fps=0.0 q=0.0 size=       0KiB time=N/A bitrate=N/A speed=N/A elapsed=0:00:09.25    \nframe=    0 fps=0.0 q=0.0 size=       0KiB time=N/A bitrate=N/A speed=N/A elapsed=0:00:09.76    \nframe=    1 fps=0.1 q=43.9 size=       0KiB time=-00:00:00.01 bitrate=N/A speed=N/A elapsed=0:00:10.29    \nframe=    1 fps=0.1 q=43.9 size=       0KiB time=-00:00:00.01 bitrate=N/A speed=N/A elapsed=0:00:10.81    \nframe=    2 fps=0.2 q=48.0 size=       0KiB time=00:00:00.00 bitrate=N/A speed=   0x elapsed=0:00:11.32    \nframe=    2 fps=0.2 q=48.0 size=       0KiB time=00:00:00.00 bitrate=N/A speed=   0x elapsed=0:00:11.85    \nframe=    3 fps=0.2 q=50.7 size=       0KiB time=00:00:00.01 bitrate=  21.1kbits/s speed=0.00135x elapsed=0:00:12.36    \nframe=    4 fps=0.3 q=50.9 size=       0KiB time=00:00:00.03 bitrate=  10.6kbits/s speed=0.00258x elapsed=0:00:12.91    \nframe=    4 fps=0.3 q=50.9 size=       0KiB time=00:00:00.03 bitrate=  10.6kbits/s speed=0.00248x elapsed=0:00:13.44    \nframe=    4 fps=0.3 q=50.9 size=       0KiB time=00:00:00.03 bitrate=  10.6kbits/s speed=0.00239x elapsed=0:00:13.97    \nframe=    4 fps=0.3 q=50.9 size=       0KiB time=00:00:00.03 bitrate=  10.6kbits/s speed=0.0023x elapsed=0:00:14.48    \nframe=    5 fps=0.3 q=49.6 size=       0KiB time=00:00:00.05 bitrate=   7.0kbits/s speed=0.00333x elapsed=0:00:15.01    \nframe=    6 fps=0.4 q=48.6 size=       0KiB time=00:00:00.06 bitrate=   5.3kbits/s speed=0.00429x elapsed=0:00:15.54    \nframe=    6 fps=0.4 q=48.6 size=       0KiB time=00:00:00.06 bitrate=   5.3kbits/s speed=0.00415x elapsed=0:00:16.06    \nframe=    6 fps=0.4 q=48.6 size=       0KiB time=00:00:00.06 bitrate=   5.3kbits/s speed=0.00402x elapsed=0:00:16.60    \nframe=    7 fps=0.4 q=41.8 size=       0KiB time=00:00:00.08 bitrate=   4.2kbits/s speed=0.00486x elapsed=0:00:17.13    \nframe=    7 fps=0.4 q=41.8 size=       0KiB time=00:00:00.08 bitrate=   4.2kbits/s speed=0.00472x elapsed=0:00:17.65    \nframe=    9 fps=0.5 q=43.9 size=       0KiB time=00:00:00.11 bitrate=   3.0kbits/s speed=0.00641x elapsed=0:00:18.18    \nframe=    9 fps=0.5 q=43.9 size=       0KiB time=00:00:00.11 bitrate=   3.0kbits/s speed=0.00624x elapsed=0:00:18.70    \nframe=    9 fps=0.5 q=43.9 size=       0KiB time=00:00:00.11 bitrate=   3.0kbits/s speed=0.00607x elapsed=0:00:19.23    \nframe=    9 fps=0.5 q=43.9 size=       0KiB time=00:00:00.11 bitrate=   3.0kbits/s speed=0.00591x elapsed=0:00:19.75    \nframe=    9 fps=0.4 q=43.9 size=       0KiB time=00:00:00.11 bitrate=   3.0kbits/s speed=0.00575x elapsed=0:00:20.29    \nframe=   10 fps=0.5 q=43.4 size=       0KiB time=00:00:00.13 bitrate=   2.6kbits/s speed=0.0064x elapsed=0:00:20.81    \nframe=   10 fps=0.5 q=43.4 size=       0KiB time=00:00:00.13 bitrate=   2.6kbits/s speed=0.00625x elapsed=0:00:21.34    \nframe=   11 fps=0.5 q=43.4 size=       0KiB time=00:00:00.15 bitrate=   2.3kbits/s speed=0.00686x elapsed=0:00:21.86    \nframe=   12 fps=0.5 q=39.6 size=       0KiB time=00:00:00.16 bitrate=   2.1kbits/s speed=0.00745x elapsed=0:00:22.37    \nframe=   12 fps=0.5 q=39.6 size=       0KiB time=00:00:00.16 bitrate=   2.1kbits/s speed=0.00728x elapsed=0:00:22.89    \nframe=   12 fps=0.5 q=39.6 size=       0KiB time=00:00:00.16 bitrate=   2.1kbits/s speed=0.00712x elapsed=0:00:23.42    \nframe=   13 fps=0.5 q=43.4 size=       0KiB time=00:00:00.18 bitrate=   1.9kbits/s speed=0.00765x elapsed=0:00:23.95    \nframe=   13 fps=0.5 q=43.4 size=       0KiB time=00:00:00.18 bitrate=   1.9kbits/s speed=0.00749x elapsed=0:00:24.47    \nframe=   14 fps=0.6 q=43.5 size=       0KiB time=00:00:00.20 bitrate=   1.8kbits/s speed=0.008x elapsed=0:00:25.00    \nframe=   14 fps=0.5 q=43.5 size=       0KiB time=00:00:00.20 bitrate=   1.8kbits/s speed=0.00783x elapsed=0:00:25.53    \nframe=   14 fps=0.5 q=43.5 size=       0KiB time=00:00:00.20 bitrate=   1.8kbits/s speed=0.00767x elapsed=0:00:26.06    \nframe=   14 fps=0.5 q=43.5 size=       0KiB time=00:00:00.20 bitrate=   1.8kbits/s speed=0.00752x elapsed=0:00:26.58    \nframe=   14 fps=0.5 q=43.5 size=       0KiB time=00:00:00.20 bitrate=   1.8kbits/s speed=0.00738x elapsed=0:00:27.09    \nframe=   15 fps=0.5 q=43.8 size=       0KiB time=00:00:00.21 bitrate=   1.6kbits/s speed=0.00785x elapsed=0:00:27.61    \nframe=   15 fps=0.5 q=43.8 size=       0KiB time=00:00:00.21 bitrate=   1.6kbits/s speed=0.0077x elapsed=0:00:28.12    \nframe=   16 fps=0.6 q=43.0 size=       0KiB time=00:00:00.21 bitrate=   1.6kbits/s speed=0.00756x elapsed=0:00:28.64    \nframe=   16 fps=0.5 q=43.0 size=       0KiB time=00:00:00.23 bitrate=   1.5kbits/s speed=0.008x elapsed=0:00:29.18    \nframe=   17 fps=0.6 q=38.3 size=       0KiB time=00:00:00.25 bitrate=   1.4kbits/s speed=0.00842x elapsed=0:00:29.69    \nframe=   18 fps=0.6 q=42.1 size=       0KiB time=00:00:00.26 bitrate=   1.3kbits/s speed=0.00882x elapsed=0:00:30.24    \nframe=   19 fps=0.6 q=42.1 size=       0KiB time=00:00:00.28 bitrate=   1.2kbits/s speed=0.00921x elapsed=0:00:30.75    \nframe=   19 fps=0.6 q=42.1 size=       0KiB time=00:00:00.28 bitrate=   1.2kbits/s speed=0.00905x elapsed=0:00:31.31    \nframe=   19 fps=0.6 q=42.1 size=       0KiB time=00:00:00.28 bitrate=   1.2kbits/s speed=0.0089x elapsed=0:00:31.83    \nframe=   19 fps=0.6 q=42.1 size=       0KiB time=00:00:00.28 bitrate=   1.2kbits/s speed=0.00876x elapsed=0:00:32.36    \nframe=   20 fps=0.6 q=42.4 size=       0KiB time=00:00:00.30 bitrate=   1.2kbits/s speed=0.00912x elapsed=0:00:32.88    \nframe=   20 fps=0.6 q=42.4 size=       0KiB time=00:00:00.30 bitrate=   1.2kbits/s speed=0.00898x elapsed=0:00:33.39    \nframe=   20 fps=0.6 q=42.4 size=       0KiB time=00:00:00.30 bitrate=   1.2kbits/s speed=0.00884x elapsed=0:00:33.94    \nframe=   20 fps=0.6 q=42.4 size=       0KiB time=00:00:00.30 bitrate=   1.2kbits/s speed=0.0087x elapsed=0:00:34.48    \nframe=   21 fps=0.6 q=42.0 size=       0KiB time=00:00:00.31 bitrate=   1.1kbits/s speed=0.00904x elapsed=0:00:35.02    \nframe=   21 fps=0.6 q=42.0 size=       0KiB time=00:00:00.31 bitrate=   1.1kbits/s speed=0.00891x elapsed=0:00:35.54    \nframe=   21 fps=0.6 q=42.0 size=       0KiB time=00:00:00.31 bitrate=   1.1kbits/s speed=0.00878x elapsed=0:00:36.06    \nframe=   22 fps=0.6 q=37.5 size=       0KiB time=00:00:00.33 bitrate=   1.1kbits/s speed=0.00911x elapsed=0:00:36.58    \nframe=   22 fps=0.6 q=37.5 size=       0KiB time=00:00:00.33 bitrate=   1.1kbits/s speed=0.00898x elapsed=0:00:37.11    \nframe=   22 fps=0.6 q=37.5 size=       0KiB time=00:00:00.33 bitrate=   1.1kbits/s speed=0.00886x elapsed=0:00:37.64    \nframe=   23 fps=0.6 q=41.5 size=       0KiB time=00:00:00.33 bitrate=   1.1kbits/s speed=0.00873x elapsed=0:00:38.17    \nframe=   23 fps=0.6 q=41.5 size=       0KiB time=00:00:00.35 bitrate=   1.0kbits/s speed=0.00904x elapsed=0:00:38.71    \nframe=   24 fps=0.6 q=41.7 size=       0KiB time=00:00:00.36 bitrate=   1.0kbits/s speed=0.00935x elapsed=0:00:39.23    \nframe=   24 fps=0.6 q=41.7 size=       0KiB time=00:00:00.36 bitrate=   1.0kbits/s speed=0.00922x elapsed=0:00:39.77    \nframe=   24 fps=0.6 q=41.7 size=       0KiB time=00:00:00.36 bitrate=   1.0kbits/s speed=0.0091x elapsed=0:00:40.29    \nframe=   24 fps=0.6 q=41.7 size=       0KiB time=00:00:00.36 bitrate=   1.0kbits/s speed=0.00898x elapsed=0:00:40.84    \nframe=   24 fps=0.6 q=41.7 size=       0KiB time=00:00:00.36 bitrate=   1.0kbits/s speed=0.00886x elapsed=0:00:41.39    \nframe=   25 fps=0.6 q=40.9 size=       0KiB time=00:00:00.38 bitrate=   0.9kbits/s speed=0.00915x elapsed=0:00:41.90    \nframe=   25 fps=0.6 q=40.9 size=       0KiB time=00:00:00.38 bitrate=   0.9kbits/s speed=0.00903x elapsed=0:00:42.43    \nframe=   25 fps=0.6 q=40.9 size=       0KiB time=00:00:00.38 bitrate=   0.9kbits/s speed=0.00892x elapsed=0:00:42.96    \nframe=   25 fps=0.6 q=40.9 size=       0KiB time=00:00:00.38 bitrate=   0.9kbits/s speed=0.00881x elapsed=0:00:43.49    \nframe=   26 fps=0.6 q=40.8 size=       0KiB time=00:00:00.40 bitrate=   0.9kbits/s speed=0.00909x elapsed=0:00:44.01    \nframe=   26 fps=0.6 q=40.8 size=       0KiB time=00:00:00.40 bitrate=   0.9kbits/s speed=0.00898x elapsed=0:00:44.53    \nframe=   26 fps=0.6 q=40.8 size=       0KiB time=00:00:00.40 bitrate=   0.9kbits/s speed=0.00888x elapsed=0:00:45.06    \nframe=   26 fps=0.6 q=40.8 size=       0KiB time=00:00:00.40 bitrate=   0.9kbits/s speed=0.00876x elapsed=0:00:45.65    \nframe=   27 fps=0.6 q=36.7 size=       0KiB time=00:00:00.41 bitrate=   0.8kbits/s speed=0.00902x elapsed=0:00:46.19    \nframe=   27 fps=0.6 q=36.7 size=       0KiB time=00:00:00.41 bitrate=   0.8kbits/s speed=0.00892x elapsed=0:00:46.73    \nframe=   28 fps=0.6 q=40.6 size=       0KiB time=00:00:00.43 bitrate=   0.8kbits/s speed=0.00917x elapsed=0:00:47.25    \nframe=   28 fps=0.6 q=40.6 size=       0KiB time=00:00:00.43 bitrate=   0.8kbits/s speed=0.00907x elapsed=0:00:47.77    \nframe=   29 fps=0.6 q=41.2 size=       0KiB time=00:00:00.45 bitrate=   0.8kbits/s speed=0.00932x elapsed=0:00:48.30    \nframe=   29 fps=0.6 q=41.2 size=       0KiB time=00:00:00.45 bitrate=   0.8kbits/s speed=0.00921x elapsed=0:00:48.84    \nframe=   29 fps=0.6 q=41.2 size=       0KiB time=00:00:00.45 bitrate=   0.8kbits/s speed=0.00911x elapsed=0:00:49.40    \nframe=   29 fps=0.6 q=41.2 size=       0KiB time=00:00:00.45 bitrate=   0.8kbits/s speed=0.00901x elapsed=0:00:49.92    \nframe=   29 fps=0.6 q=41.2 size=       0KiB time=00:00:00.45 bitrate=   0.8kbits/s speed=0.00892x elapsed=0:00:50.44    \nframe=   30 fps=0.6 q=39.9 size=       0KiB time=00:00:00.46 bitrate=   0.8kbits/s speed=0.00915x elapsed=0:00:50.97    \nframe=   30 fps=0.6 q=39.9 size=       0KiB time=00:00:00.46 bitrate=   0.8kbits/s speed=0.00906x elapsed=0:00:51.49    \nframe=   30 fps=0.6 q=39.9 size=       0KiB time=00:00:00.46 bitrate=   0.8kbits/s speed=0.00897x elapsed=0:00:52.01    \nframe=   31 fps=0.6 q=40.2 size=       0KiB time=00:00:00.48 bitrate=   0.7kbits/s speed=0.0092x elapsed=0:00:52.54    \nframe=   32 fps=0.6 q=36.2 size=       0KiB time=00:00:00.50 bitrate=   0.7kbits/s speed=0.00942x elapsed=0:00:53.06    \nframe=   32 fps=0.6 q=36.2 size=       0KiB time=00:00:00.50 bitrate=   0.7kbits/s speed=0.00933x elapsed=0:00:53.58    \nframe=   33 fps=0.6 q=40.3 size=       0KiB time=00:00:00.51 bitrate=   0.7kbits/s speed=0.00955x elapsed=0:00:54.09    \nframe=   34 fps=0.6 q=40.3 size=       0KiB time=00:00:00.53 bitrate=   0.7kbits/s speed=0.00977x elapsed=0:00:54.61    \nframe=   34 fps=0.6 q=40.3 size=       0KiB time=00:00:00.53 bitrate=   0.7kbits/s speed=0.00967x elapsed=0:00:55.12    \nframe=   34 fps=0.6 q=40.3 size=       0KiB time=00:00:00.53 bitrate=   0.7kbits/s speed=0.00958x elapsed=0:00:55.66    \nframe=   34 fps=0.6 q=40.3 size=       0KiB time=00:00:00.53 bitrate=   0.7kbits/s speed=0.00949x elapsed=0:00:56.18    \nframe=   34 fps=0.6 q=40.3 size=       0KiB time=00:00:00.53 bitrate=   0.7kbits/s speed=0.0094x elapsed=0:00:56.73    \nframe=   34 fps=0.6 q=40.3 size=       0KiB time=00:00:00.53 bitrate=   0.7kbits/s speed=0.00931x elapsed=0:00:57.26    \nframe=   34 fps=0.6 q=40.3 size=       0KiB time=00:00:00.53 bitrate=   0.7kbits/s speed=0.00922x elapsed=0:00:57.82    \nframe=   34 fps=0.6 q=40.3 size=       0KiB time=00:00:00.53 bitrate=   0.7kbits/s speed=0.00914x elapsed=0:00:58.36    \nframe=   34 fps=0.6 q=40.3 size=       0KiB time=00:00:00.53 bitrate=   0.7kbits/s speed=0.00906x elapsed=0:00:58.88    \nframe=   35 fps=0.6 q=40.1 size=       0KiB time=00:00:00.55 bitrate=   0.6kbits/s speed=0.00926x elapsed=0:00:59.41    \nframe=   35 fps=0.6 q=40.1 size=       0KiB time=00:00:00.55 bitrate=   0.6kbits/s speed=0.00918x elapsed=0:00:59.92    \nframe=   36 fps=0.6 q=40.4 size=       0KiB time=00:00:00.56 bitrate=   0.6kbits/s speed=0.00938x elapsed=0:01:00.43    \nframe=   38 fps=0.6 q=40.4 size=       0KiB time=00:00:00.60 bitrate=   0.6kbits/s speed=0.00984x elapsed=0:01:00.96    \nframe=   39 fps=0.6 q=40.5 size=       0KiB time=00:00:00.61 bitrate=   0.6kbits/s speed=0.01x elapsed=0:01:01.48    \nframe=   39 fps=0.6 q=40.5 size=       0KiB time=00:00:00.61 bitrate=   0.6kbits/s speed=0.00995x elapsed=0:01:01.99    \nframe=   40 fps=0.6 q=39.4 size=       0KiB time=00:00:00.63 bitrate=   0.6kbits/s speed=0.0101x elapsed=0:01:02.50    \nframe=   42 fps=0.7 q=35.0 size=       0KiB time=00:00:00.66 bitrate=   0.5kbits/s speed=0.0106x elapsed=0:01:03.02    \nframe=   43 fps=0.7 q=39.6 size=       0KiB time=00:00:00.68 bitrate=   0.5kbits/s speed=0.0108x elapsed=0:01:03.53    \nframe=   44 fps=0.7 q=40.5 size=       0KiB time=00:00:00.70 bitrate=   0.5kbits/s speed=0.0109x elapsed=0:01:04.05    \nframe=   44 fps=0.7 q=40.5 size=       0KiB time=00:00:00.70 bitrate=   0.5kbits/s speed=0.0108x elapsed=0:01:04.56    \nframe=   45 fps=0.7 q=39.5 size=       0KiB time=00:00:00.71 bitrate=   0.5kbits/s speed=0.011x elapsed=0:01:05.07    \nframe=   46 fps=0.7 q=39.8 size=       0KiB time=00:00:00.73 bitrate=   0.5kbits/s speed=0.0112x elapsed=0:01:05.59    \nframe=   47 fps=0.7 q=34.9 size=       0KiB time=00:00:00.75 bitrate=   0.5kbits/s speed=0.0113x elapsed=0:01:06.11    \nframe=   49 fps=0.7 q=40.2 size=       0KiB time=00:00:00.78 bitrate=   0.4kbits/s speed=0.0118x elapsed=0:01:06.63    \nframe=   49 fps=0.7 q=40.2 size=       0KiB time=00:00:00.78 bitrate=   0.4kbits/s speed=0.0117x elapsed=0:01:07.14    \nframe=   50 fps=0.7 q=39.4 size=       0KiB time=00:00:00.80 bitrate=   0.4kbits/s speed=0.0118x elapsed=0:01:07.65    \nframe=   50 fps=0.7 q=39.4 size=       0KiB time=00:00:00.80 bitrate=   0.4kbits/s speed=0.0117x elapsed=0:01:08.17    \nframe=   52 fps=0.8 q=34.5 size=       0KiB time=00:00:00.83 bitrate=   0.4kbits/s speed=0.0121x elapsed=0:01:08.68    \nframe=   53 fps=0.8 q=39.1 size=       0KiB time=00:00:00.85 bitrate=   0.4kbits/s speed=0.0123x elapsed=0:01:09.20    \nframe=   54 fps=0.8 q=39.5 size=       0KiB time=00:00:00.86 bitrate=   0.4kbits/s speed=0.0124x elapsed=0:01:09.72    \nframe=   54 fps=0.8 q=39.5 size=       0KiB time=00:00:00.86 bitrate=   0.4kbits/s speed=0.0123x elapsed=0:01:10.28    \nframe=   54 fps=0.8 q=39.5 size=       0KiB time=00:00:00.86 bitrate=   0.4kbits/s speed=0.0122x elapsed=0:01:10.80    \nframe=   54 fps=0.8 q=39.5 size=       0KiB time=00:00:00.86 bitrate=   0.4kbits/s speed=0.0122x elapsed=0:01:11.32    \nframe=   54 fps=0.8 q=39.5 size=       0KiB time=00:00:00.86 bitrate=   0.4kbits/s speed=0.0121x elapsed=0:01:11.84    \nframe=   55 fps=0.8 q=39.6 size=       0KiB time=00:00:00.88 bitrate=   0.4kbits/s speed=0.0122x elapsed=0:01:12.37    \nframe=   55 fps=0.8 q=39.6 size=       0KiB time=00:00:00.88 bitrate=   0.4kbits/s speed=0.0121x elapsed=0:01:12.91    \nframe=   56 fps=0.8 q=39.6 size=       0KiB time=00:00:00.90 bitrate=   0.4kbits/s speed=0.0123x elapsed=0:01:13.45    \nframe=   56 fps=0.8 q=39.6 size=       0KiB time=00:00:00.90 bitrate=   0.4kbits/s speed=0.0122x elapsed=0:01:13.97    \nframe=   57 fps=0.8 q=34.4 size=       0KiB time=00:00:00.91 bitrate=   0.4kbits/s speed=0.0123x elapsed=0:01:14.48    \nframe=   57 fps=0.8 q=34.4 size=       0KiB time=00:00:00.91 bitrate=   0.4kbits/s speed=0.0122x elapsed=0:01:15.01    \nframe=   58 fps=0.8 q=39.2 size=       0KiB time=00:00:00.93 bitrate=   0.4kbits/s speed=0.0124x elapsed=0:01:15.53    \nframe=   59 fps=0.8 q=40.4 size=       0KiB time=00:00:00.95 bitrate=   0.4kbits/s speed=0.0125x elapsed=0:01:16.04    \nframe=   59 fps=0.8 q=40.4 size=       0KiB time=00:00:00.95 bitrate=   0.4kbits/s speed=0.0124x elapsed=0:01:16.58    \nframe=   59 fps=0.8 q=40.4 size=       0KiB time=00:00:00.95 bitrate=   0.4kbits/s speed=0.0123x elapsed=0:01:17.13    \nframe=   59 fps=0.8 q=40.4 size=       0KiB time=00:00:00.95 bitrate=   0.4kbits/s speed=0.0122x elapsed=0:01:17.64    \nframe=   59 fps=0.8 q=40.4 size=       0KiB time=00:00:00.95 bitrate=   0.4kbits/s speed=0.0122x elapsed=0:01:18.15    \nframe=   59 fps=0.7 q=40.4 size=       0KiB time=00:00:00.95 bitrate=   0.4kbits/s speed=0.0121x elapsed=0:01:18.67    \nframe=   59 fps=0.7 q=40.4 size=       0KiB time=00:00:00.95 bitrate=   0.4kbits/s speed=0.012x elapsed=0:01:19.18    \nframe=   60 fps=0.8 q=40.2 size=       0KiB time=00:00:00.96 bitrate=   0.4kbits/s speed=0.0121x elapsed=0:01:19.71    \nframe=   60 fps=0.7 q=40.2 size=       0KiB time=00:00:00.96 bitrate=   0.4kbits/s speed=0.012x elapsed=0:01:20.24    \nframe=   60 fps=0.7 q=40.2 size=       0KiB time=00:00:00.96 bitrate=   0.4kbits/s speed=0.012x elapsed=0:01:20.77    \nframe=   61 fps=0.8 q=40.5 size=       0KiB time=00:00:00.98 bitrate=   0.4kbits/s speed=0.0121x elapsed=0:01:21.28    \nframe=   61 fps=0.7 q=40.5 size=       0KiB time=00:00:00.98 bitrate=   0.4kbits/s speed=0.012x elapsed=0:01:21.80    \nframe=   62 fps=0.8 q=34.6 size=       0KiB time=00:00:01.00 bitrate=   0.4kbits/s speed=0.0121x elapsed=0:01:22.31    \nframe=   62 fps=0.7 q=34.6 size=       0KiB time=00:00:01.00 bitrate=   0.4kbits/s speed=0.0121x elapsed=0:01:22.83    \nframe=   63 fps=0.8 q=39.1 size=       0KiB time=00:00:01.01 bitrate=   0.3kbits/s speed=0.0122x elapsed=0:01:23.36    \nframe=   64 fps=0.8 q=40.4 size=       0KiB time=00:00:01.03 bitrate=   0.3kbits/s speed=0.0123x elapsed=0:01:23.89    \nframe=   64 fps=0.8 q=40.4 size=       0KiB time=00:00:01.03 bitrate=   0.3kbits/s speed=0.0122x elapsed=0:01:24.44    \nframe=   64 fps=0.8 q=40.4 size=       0KiB time=00:00:01.03 bitrate=   0.3kbits/s speed=0.0122x elapsed=0:01:25.00    \nframe=   64 fps=0.7 q=40.4 size=       0KiB time=00:00:01.03 bitrate=   0.3kbits/s speed=0.0121x elapsed=0:01:25.53    \nframe=   64 fps=0.7 q=40.4 size=       0KiB time=00:00:01.03 bitrate=   0.3kbits/s speed=0.012x elapsed=0:01:26.05    \nframe=   64 fps=0.7 q=40.4 size=       0KiB time=00:00:01.03 bitrate=   0.3kbits/s speed=0.0119x elapsed=0:01:26.59    \nframe=   65 fps=0.7 q=40.2 size=       0KiB time=00:00:01.05 bitrate=   0.3kbits/s speed=0.0121x elapsed=0:01:27.11    \nframe=   65 fps=0.7 q=40.2 size=       0KiB time=00:00:01.05 bitrate=   0.3kbits/s speed=0.012x elapsed=0:01:27.62    \nframe=   65 fps=0.7 q=40.2 size=       0KiB time=00:00:01.05 bitrate=   0.3kbits/s speed=0.0119x elapsed=0:01:28.15    \nframe=   66 fps=0.7 q=40.3 size=       0KiB time=00:00:01.06 bitrate=   0.3kbits/s speed=0.012x elapsed=0:01:28.69    \nframe=   67 fps=0.8 q=34.9 size=       0KiB time=00:00:01.08 bitrate=   0.3kbits/s speed=0.0121x elapsed=0:01:29.23    \nframe=   67 fps=0.7 q=34.9 size=       0KiB time=00:00:01.08 bitrate=   0.3kbits/s speed=0.0121x elapsed=0:01:29.78    \nframe=   68 fps=0.8 q=39.1 size=       0KiB time=00:00:01.10 bitrate=   0.3kbits/s speed=0.0122x elapsed=0:01:30.30    \nframe=   69 fps=0.8 q=40.3 size=       0KiB time=00:00:01.11 bitrate=   0.3kbits/s speed=0.0123x elapsed=0:01:30.83    \nframe=   69 fps=0.8 q=40.3 size=       0KiB time=00:00:01.11 bitrate=   0.3kbits/s speed=0.0122x elapsed=0:01:31.36    \nframe=   69 fps=0.8 q=40.3 size=       0KiB time=00:00:01.11 bitrate=   0.3kbits/s speed=0.0122x elapsed=0:01:31.87    \nframe=   69 fps=0.7 q=40.3 size=       0KiB time=00:00:01.11 bitrate=   0.3kbits/s speed=0.0121x elapsed=0:01:32.40    \nframe=   70 fps=0.8 q=39.5 size=       0KiB time=00:00:01.13 bitrate=   0.3kbits/s speed=0.0122x elapsed=0:01:32.92    \nframe=   70 fps=0.7 q=39.5 size=       0KiB time=00:00:01.13 bitrate=   0.3kbits/s speed=0.0121x elapsed=0:01:33.46    \nframe=   71 fps=0.8 q=39.8 size=       0KiB time=00:00:01.15 bitrate=   0.3kbits/s speed=0.0122x elapsed=0:01:33.98    \nframe=   71 fps=0.8 q=39.8 size=       0KiB time=00:00:01.15 bitrate=   0.3kbits/s speed=0.0122x elapsed=0:01:34.52    \nframe=   72 fps=0.8 q=34.6 size=       0KiB time=00:00:01.16 bitrate=   0.3kbits/s speed=0.0123x elapsed=0:01:35.04    \nframe=   73 fps=0.8 q=38.3 size=       0KiB time=00:00:01.18 bitrate=   0.3kbits/s speed=0.0124x elapsed=0:01:35.56    \nframe=   73 fps=0.8 q=38.3 size=       0KiB time=00:00:01.18 bitrate=   0.3kbits/s speed=0.0123x elapsed=0:01:36.17    \nframe=   73 fps=0.8 q=38.3 size=       0KiB time=00:00:01.18 bitrate=   0.3kbits/s speed=0.0122x elapsed=0:01:36.68    \nframe=   73 fps=0.8 q=38.3 size=       0KiB time=00:00:01.18 bitrate=   0.3kbits/s speed=0.0122x elapsed=0:01:37.22    \nframe=   74 fps=0.8 q=39.5 size=       0KiB time=00:00:01.20 bitrate=   0.3kbits/s speed=0.0123x elapsed=0:01:37.75    \nframe=   74 fps=0.8 q=39.5 size=       0KiB time=00:00:01.20 bitrate=   0.3kbits/s speed=0.0122x elapsed=0:01:38.28    \nframe=   74 fps=0.7 q=39.5 size=       0KiB time=00:00:01.20 bitrate=   0.3kbits/s speed=0.0121x elapsed=0:01:38.83    \nframe=   75 fps=0.8 q=39.4 size=       0KiB time=00:00:01.21 bitrate=   0.3kbits/s speed=0.0122x elapsed=0:01:39.39    \nframe=   75 fps=0.8 q=39.4 size=       0KiB time=00:00:01.21 bitrate=   0.3kbits/s speed=0.0122x elapsed=0:01:39.91    \nframe=   75 fps=0.7 q=39.4 size=       0KiB time=00:00:01.21 bitrate=   0.3kbits/s speed=0.0121x elapsed=0:01:40.46    \nframe=   76 fps=0.8 q=39.6 size=       0KiB time=00:00:01.23 bitrate=   0.3kbits/s speed=0.0122x elapsed=0:01:40.98    \nframe=   76 fps=0.7 q=39.6 size=       0KiB time=00:00:01.23 bitrate=   0.3kbits/s speed=0.0121x elapsed=0:01:41.51    \nframe=   76 fps=0.7 q=39.6 size=       0KiB time=00:00:01.23 bitrate=   0.3kbits/s speed=0.0121x elapsed=0:01:42.04    \nframe=   77 fps=0.8 q=35.0 size=       0KiB time=00:00:01.25 bitrate=   0.3kbits/s speed=0.0122x elapsed=0:01:42.55    \nframe=   77 fps=0.7 q=35.0 size=       0KiB time=00:00:01.25 bitrate=   0.3kbits/s speed=0.0121x elapsed=0:01:43.07    \nframe=   78 fps=0.8 q=38.3 size=       0KiB time=00:00:01.26 bitrate=   0.3kbits/s speed=0.0122x elapsed=0:01:43.59    \nframe=   79 fps=0.8 q=39.4 size=       0KiB time=00:00:01.28 bitrate=   0.3kbits/s speed=0.0123x elapsed=0:01:44.14    \nframe=   79 fps=0.8 q=39.4 size=       0KiB time=00:00:01.28 bitrate=   0.3kbits/s speed=0.0123x elapsed=0:01:44.67    \nframe=   79 fps=0.8 q=39.4 size=       0KiB time=00:00:01.28 bitrate=   0.3kbits/s speed=0.0122x elapsed=0:01:45.22    \nframe=   79 fps=0.7 q=39.4 size=       0KiB time=00:00:01.28 bitrate=   0.3kbits/s speed=0.0121x elapsed=0:01:45.79    \nframe=   79 fps=0.7 q=39.4 size=       0KiB time=00:00:01.28 bitrate=   0.3kbits/s speed=0.0121x elapsed=0:01:46.34    \nframe=   80 fps=0.7 q=39.5 size=       0KiB time=00:00:01.30 bitrate=   0.3kbits/s speed=0.0122x elapsed=0:01:46.86    \nframe=   80 fps=0.7 q=39.5 size=       0KiB time=00:00:01.30 bitrate=   0.3kbits/s speed=0.0121x elapsed=0:01:47.38    \nframe=   80 fps=0.7 q=39.5 size=       0KiB time=00:00:01.30 bitrate=   0.3kbits/s speed=0.012x elapsed=0:01:47.92    \nframe=   80 fps=0.7 q=39.5 size=       0KiB time=00:00:01.30 bitrate=   0.3kbits/s speed=0.012x elapsed=0:01:48.45    \nframe=   80 fps=0.7 q=39.5 size=       0KiB time=00:00:01.30 bitrate=   0.3kbits/s speed=0.0119x elapsed=0:01:48.98    \nframe=   81 fps=0.7 q=39.7 size=       0KiB time=00:00:01.31 bitrate=   0.3kbits/s speed=0.012x elapsed=0:01:49.52    \nframe=   81 fps=0.7 q=39.7 size=       0KiB time=00:00:01.31 bitrate=   0.3kbits/s speed=0.012x elapsed=0:01:50.06    \nframe=   82 fps=0.7 q=35.3 size=       0KiB time=00:00:01.33 bitrate=   0.3kbits/s speed=0.0121x elapsed=0:01:50.60    \nframe=   82 fps=0.7 q=35.3 size=       0KiB time=00:00:01.33 bitrate=   0.3kbits/s speed=0.012x elapsed=0:01:51.12    \nframe=   82 fps=0.7 q=35.3 size=       0KiB time=00:00:01.33 bitrate=   0.3kbits/s speed=0.0119x elapsed=0:01:51.64    \nframe=   83 fps=0.7 q=38.9 size=       0KiB time=00:00:01.35 bitrate=   0.3kbits/s speed=0.012x elapsed=0:01:52.16    \nframe=   83 fps=0.7 q=38.9 size=       0KiB time=00:00:01.35 bitrate=   0.3kbits/s speed=0.012x elapsed=0:01:52.72    \nframe=   84 fps=0.7 q=40.1 size=       0KiB time=00:00:01.36 bitrate=   0.3kbits/s speed=0.0121x elapsed=0:01:53.27    \nframe=   84 fps=0.7 q=40.1 size=       0KiB time=00:00:01.36 bitrate=   0.3kbits/s speed=0.012x elapsed=0:01:53.78    \nframe=   84 fps=0.7 q=40.1 size=       0KiB time=00:00:01.36 bitrate=   0.3kbits/s speed=0.012x elapsed=0:01:54.33    \nframe=   84 fps=0.7 q=40.1 size=       0KiB time=00:00:01.36 bitrate=   0.3kbits/s speed=0.0119x elapsed=0:01:54.86    \nframe=   84 fps=0.7 q=40.1 size=       0KiB time=00:00:01.36 bitrate=   0.3kbits/s speed=0.0118x elapsed=0:01:55.39    \nframe=   85 fps=0.7 q=40.0 size=       0KiB time=00:00:01.38 bitrate=   0.3kbits/s speed=0.0119x elapsed=0:01:55.94    \nframe=   85 fps=0.7 q=40.0 size=       0KiB time=00:00:01.38 bitrate=   0.3kbits/s speed=0.0119x elapsed=0:01:56.45    \nframe=   85 fps=0.7 q=40.0 size=       0KiB time=00:00:01.38 bitrate=   0.3kbits/s speed=0.0118x elapsed=0:01:56.97    \nframe=   85 fps=0.7 q=40.0 size=       0KiB time=00:00:01.38 bitrate=   0.3kbits/s speed=0.0118x elapsed=0:01:57.49    \nframe=   86 fps=0.7 q=40.4 size=       0KiB time=00:00:01.40 bitrate=   0.3kbits/s speed=0.0119x elapsed=0:01:58.00    \nframe=   86 fps=0.7 q=40.4 size=       0KiB time=00:00:01.40 bitrate=   0.3kbits/s speed=0.0118x elapsed=0:01:58.53    \nframe=   87 fps=0.7 q=35.6 size=       0KiB time=00:00:01.41 bitrate=   0.2kbits/s speed=0.0119x elapsed=0:01:59.08    \nframe=   87 fps=0.7 q=35.6 size=       0KiB time=00:00:01.41 bitrate=   0.2kbits/s speed=0.0118x elapsed=0:01:59.60    \nframe=   87 fps=0.7 q=35.6 size=       0KiB time=00:00:01.41 bitrate=   0.2kbits/s speed=0.0118x elapsed=0:02:00.13    \nframe=   88 fps=0.7 q=39.1 size=       0KiB time=00:00:01.43 bitrate=   0.2kbits/s speed=0.0119x elapsed=0:02:00.64    \nframe=   89 fps=0.7 q=40.2 size=       0KiB time=00:00:01.45 bitrate=   0.2kbits/s speed=0.012x elapsed=0:02:01.17    \nframe=   89 fps=0.7 q=40.2 size=       0KiB time=00:00:01.45 bitrate=   0.2kbits/s speed=0.0119x elapsed=0:02:01.72    \nframe=   89 fps=0.7 q=40.2 size=       0KiB time=00:00:01.45 bitrate=   0.2kbits/s speed=0.0119x elapsed=0:02:02.24    \nframe=   90 fps=0.7 q=40.1 size=       0KiB time=00:00:01.46 bitrate=   0.2kbits/s speed=0.0119x elapsed=0:02:02.75    \nframe=   90 fps=0.7 q=40.1 size=       0KiB time=00:00:01.46 bitrate=   0.2kbits/s speed=0.0119x elapsed=0:02:03.28    \nframe=   90 fps=0.7 q=40.1 size=       0KiB time=00:00:01.46 bitrate=   0.2kbits/s speed=0.0118x elapsed=0:02:03.80    \nframe=   91 fps=0.7 q=40.4 size=       0KiB time=00:00:01.48 bitrate=   0.2kbits/s speed=0.0119x elapsed=0:02:04.35    \nframe=   91 fps=0.7 q=40.4 size=       0KiB time=00:00:01.48 bitrate=   0.2kbits/s speed=0.0119x elapsed=0:02:04.91    \nframe=   91 fps=0.7 q=40.4 size=       0KiB time=00:00:01.48 bitrate=   0.2kbits/s speed=0.0118x elapsed=0:02:05.46    \nframe=   91 fps=0.7 q=40.4 size=       0KiB time=00:00:01.48 bitrate=   0.2kbits/s speed=0.0118x elapsed=0:02:06.03    \nframe=   91 fps=0.7 q=40.4 size=       0KiB time=00:00:01.48 bitrate=   0.2kbits/s speed=0.0117x elapsed=0:02:06.57    \nframe=   92 fps=0.7 q=35.7 size=       0KiB time=00:00:01.50 bitrate=   0.2kbits/s speed=0.0118x elapsed=0:02:07.09    \nframe=   92 fps=0.7 q=35.7 size=       0KiB time=00:00:01.50 bitrate=   0.2kbits/s speed=0.0118x elapsed=0:02:07.61    \nframe=   92 fps=0.7 q=35.7 size=       0KiB time=00:00:01.50 bitrate=   0.2kbits/s speed=0.0117x elapsed=0:02:08.12    \nframe=   93 fps=0.7 q=39.1 size=     256KiB time=00:00:01.51 bitrate=1383.0kbits/s speed=0.0118x elapsed=0:02:08.64    \nframe=   94 fps=0.7 q=40.3 size=     256KiB time=00:00:01.53 bitrate=1367.9kbits/s speed=0.0119x elapsed=0:02:09.16    \nframe=   94 fps=0.7 q=40.3 size=     256KiB time=00:00:01.53 bitrate=1367.9kbits/s speed=0.0118x elapsed=0:02:09.68    \nframe=   95 fps=0.7 q=40.2 size=     256KiB time=00:00:01.55 bitrate=1353.2kbits/s speed=0.0119x elapsed=0:02:10.20    \nframe=   95 fps=0.7 q=40.2 size=     256KiB time=00:00:01.55 bitrate=1353.2kbits/s speed=0.0119x elapsed=0:02:10.72    \nframe=   96 fps=0.7 q=40.3 size=     256KiB time=00:00:01.56 bitrate=1338.8kbits/s speed=0.0119x elapsed=0:02:11.23    \nframe=   97 fps=0.7 q=35.6 size=     256KiB time=00:00:01.58 bitrate=1324.7kbits/s speed=0.012x elapsed=0:02:11.74    \nframe=   99 fps=0.7 q=40.4 size=     256KiB time=00:00:01.61 bitrate=1297.4kbits/s speed=0.0122x elapsed=0:02:12.27    \nframe=   99 fps=0.7 q=40.4 size=     256KiB time=00:00:01.61 bitrate=1297.4kbits/s speed=0.0122x elapsed=0:02:12.79    \nframe=  100 fps=0.8 q=40.4 size=     256KiB time=00:00:01.63 bitrate=1284.2kbits/s speed=0.0123x elapsed=0:02:13.30    \nframe=  100 fps=0.7 q=40.4 size=     256KiB time=00:00:01.63 bitrate=1284.2kbits/s speed=0.0122x elapsed=0:02:13.82    \nframe=  101 fps=0.8 q=40.9 size=     256KiB time=00:00:01.65 bitrate=1271.2kbits/s speed=0.0123x elapsed=0:02:14.34    \nframe=  103 fps=0.8 q=39.8 size=     256KiB time=00:00:01.68 bitrate=1246.0kbits/s speed=0.0125x elapsed=0:02:14.85    \nframe=  104 fps=0.8 q=40.8 size=     256KiB time=00:00:01.70 bitrate=1233.8kbits/s speed=0.0126x elapsed=0:02:15.36    \nframe=  104 fps=0.8 q=40.8 size=     256KiB time=00:00:01.70 bitrate=1233.8kbits/s speed=0.0125x elapsed=0:02:15.87    \nframe=  105 fps=0.8 q=40.7 size=     256KiB time=00:00:01.71 bitrate=1221.8kbits/s speed=0.0126x elapsed=0:02:16.39    \nframe=  106 fps=0.8 q=41.1 size=     256KiB time=00:00:01.73 bitrate=1210.1kbits/s speed=0.0127x elapsed=0:02:16.90    \nframe=  107 fps=0.8 q=36.1 size=     256KiB time=00:00:01.75 bitrate=1198.6kbits/s speed=0.0127x elapsed=0:02:17.43    \nframe=  108 fps=0.8 q=38.6 size=     256KiB time=00:00:01.76 bitrate=1187.3kbits/s speed=0.0128x elapsed=0:02:17.93    \nframe=  108 fps=0.8 q=38.6 size=     256KiB time=00:00:01.76 bitrate=1187.3kbits/s speed=0.0128x elapsed=0:02:18.46    \nframe=  109 fps=0.8 q=41.0 size=     256KiB time=00:00:01.78 bitrate=1176.2kbits/s speed=0.0128x elapsed=0:02:18.96    \nframe=  110 fps=0.8 q=41.0 size=     256KiB time=00:00:01.80 bitrate=1165.3kbits/s speed=0.0129x elapsed=0:02:19.48    \nframe=  112 fps=0.8 q=38.7 size=     256KiB time=00:00:01.83 bitrate=1144.1kbits/s speed=0.0131x elapsed=0:02:20.00    \nframe=  113 fps=0.8 q=40.8 size=     256KiB time=00:00:01.85 bitrate=1133.8kbits/s speed=0.0132x elapsed=0:02:20.52    \nframe=  113 fps=0.8 q=40.8 size=     256KiB time=00:00:01.85 bitrate=1133.8kbits/s speed=0.0131x elapsed=0:02:21.05    \nframe=  114 fps=0.8 q=40.8 size=     256KiB time=00:00:01.86 bitrate=1123.7kbits/s speed=0.0132x elapsed=0:02:21.56    \nframe=  115 fps=0.8 q=40.9 size=     256KiB time=00:00:01.88 bitrate=1113.7kbits/s speed=0.0133x elapsed=0:02:22.08    \nframe=  116 fps=0.8 q=36.0 size=     256KiB time=00:00:01.90 bitrate=1103.9kbits/s speed=0.0133x elapsed=0:02:22.60    \nframe=  118 fps=0.8 q=41.0 size=     256KiB time=00:00:01.93 bitrate=1084.9kbits/s speed=0.0135x elapsed=0:02:23.10    \nframe=  118 fps=0.8 q=41.0 size=     256KiB time=00:00:01.93 bitrate=1084.9kbits/s speed=0.0135x elapsed=0:02:23.62    \nframe=  119 fps=0.8 q=40.8 size=     256KiB time=00:00:01.95 bitrate=1075.6kbits/s speed=0.0135x elapsed=0:02:24.14    \nframe=  120 fps=0.8 q=40.9 size=     256KiB time=00:00:01.96 bitrate=1066.5kbits/s speed=0.0136x elapsed=0:02:24.66    \nframe=  122 fps=0.8 q=37.0 size=     256KiB time=00:00:02.00 bitrate=1048.8kbits/s speed=0.0138x elapsed=0:02:25.17    \nframe=  123 fps=0.8 q=40.8 size=     256KiB time=00:00:02.01 bitrate=1040.1kbits/s speed=0.0138x elapsed=0:02:25.69    \nframe=  124 fps=0.8 q=40.6 size=     256KiB time=00:00:02.03 bitrate=1031.6kbits/s speed=0.0139x elapsed=0:02:26.20    \nframe=  124 fps=0.8 q=40.6 size=     256KiB time=00:00:02.03 bitrate=1031.6kbits/s speed=0.0139x elapsed=0:02:26.72    \nframe=  126 fps=0.9 q=35.6 size=     256KiB time=00:00:02.06 bitrate=1014.9kbits/s speed=0.014x elapsed=0:02:27.24    \nframe=  127 fps=0.9 q=39.3 size=     256KiB time=00:00:02.08 bitrate=1006.8kbits/s speed=0.0141x elapsed=0:02:27.75    \nframe=  128 fps=0.9 q=40.7 size=     256KiB time=00:00:02.10 bitrate= 998.8kbits/s speed=0.0142x elapsed=0:02:28.26    \nframe=  129 fps=0.9 q=40.8 size=     256KiB time=00:00:02.11 bitrate= 990.9kbits/s speed=0.0142x elapsed=0:02:28.79    \nframe=  130 fps=0.9 q=41.2 size=     256KiB time=00:00:02.13 bitrate= 983.2kbits/s speed=0.0143x elapsed=0:02:29.31    \nframe=  131 fps=0.9 q=35.6 size=     256KiB time=00:00:02.15 bitrate= 975.6kbits/s speed=0.0143x elapsed=0:02:29.84    \nframe=  133 fps=0.9 q=40.7 size=     256KiB time=00:00:02.18 bitrate= 960.7kbits/s speed=0.0145x elapsed=0:02:30.35    \nframe=  133 fps=0.9 q=40.7 size=     256KiB time=00:00:02.18 bitrate= 960.7kbits/s speed=0.0145x elapsed=0:02:30.86    \nframe=  134 fps=0.9 q=40.8 size=     256KiB time=00:00:02.20 bitrate= 953.4kbits/s speed=0.0145x elapsed=0:02:31.37    \nframe=  136 fps=0.9 q=35.8 size=     256KiB time=00:00:02.23 bitrate= 939.2kbits/s speed=0.0147x elapsed=0:02:31.88    \nframe=  136 fps=0.9 q=35.8 size=     256KiB time=00:00:02.23 bitrate= 939.2kbits/s speed=0.0147x elapsed=0:02:32.40    \nframe=  138 fps=0.9 q=40.9 size=     256KiB time=00:00:02.26 bitrate= 925.4kbits/s speed=0.0148x elapsed=0:02:32.92    \nframe=  138 fps=0.9 q=40.9 size=     256KiB time=00:00:02.26 bitrate= 925.4kbits/s speed=0.0148x elapsed=0:02:33.43    \nframe=  139 fps=0.9 q=40.5 size=     256KiB time=00:00:02.28 bitrate= 918.6kbits/s speed=0.0148x elapsed=0:02:33.95    \nframe=  141 fps=0.9 q=35.6 size=     256KiB time=00:00:02.31 bitrate= 905.4kbits/s speed=0.015x elapsed=0:02:34.46    \nframe=  143 fps=0.9 q=41.0 size=     256KiB time=00:00:02.35 bitrate= 892.6kbits/s speed=0.0152x elapsed=0:02:34.98    \nframe=  143 fps=0.9 q=41.0 size=     256KiB time=00:00:02.35 bitrate= 892.6kbits/s speed=0.0151x elapsed=0:02:35.50    \nframe=  144 fps=0.9 q=40.8 size=     256KiB time=00:00:02.36 bitrate= 886.3kbits/s speed=0.0152x elapsed=0:02:36.01    \nframe=  144 fps=0.9 q=40.8 size=     256KiB time=00:00:02.36 bitrate= 886.3kbits/s speed=0.0151x elapsed=0:02:36.53    \nframe=  147 fps=0.9 q=39.8 size=     256KiB time=00:00:02.41 bitrate= 867.9kbits/s speed=0.0154x elapsed=0:02:37.06    \nframe=  148 fps=0.9 q=41.5 size=     256KiB time=00:00:02.43 bitrate= 862.0kbits/s speed=0.0154x elapsed=0:02:37.57    \nframe=  149 fps=0.9 q=41.0 size=     256KiB time=00:00:02.45 bitrate= 856.1kbits/s speed=0.0155x elapsed=0:02:38.08    \nframe=  150 fps=0.9 q=41.8 size=     256KiB time=00:00:02.46 bitrate= 850.3kbits/s speed=0.0156x elapsed=0:02:38.60    \nframe=  151 fps=0.9 q=35.4 size=     256KiB time=00:00:02.48 bitrate= 844.6kbits/s speed=0.0156x elapsed=0:02:39.11    \nframe=  152 fps=1.0 q=39.8 size=     256KiB time=00:00:02.50 bitrate= 839.0kbits/s speed=0.0157x elapsed=0:02:39.62    \nframe=  153 fps=1.0 q=41.2 size=     256KiB time=00:00:02.51 bitrate= 833.4kbits/s speed=0.0157x elapsed=0:02:40.14    \nframe=  154 fps=1.0 q=41.1 size=     256KiB time=00:00:02.53 bitrate= 828.0kbits/s speed=0.0158x elapsed=0:02:40.67    \nframe=  154 fps=1.0 q=41.1 size=     256KiB time=00:00:02.53 bitrate= 828.0kbits/s speed=0.0157x elapsed=0:02:41.21    \nframe=  155 fps=1.0 q=41.6 size=     256KiB time=00:00:02.55 bitrate= 822.6kbits/s speed=0.0158x elapsed=0:02:41.74    \nframe=  155 fps=1.0 q=41.6 size=     256KiB time=00:00:02.55 bitrate= 822.6kbits/s speed=0.0157x elapsed=0:02:42.30    \nframe=  156 fps=1.0 q=35.2 size=     256KiB time=00:00:02.56 bitrate= 817.2kbits/s speed=0.0158x elapsed=0:02:42.82    \nframe=  156 fps=1.0 q=35.2 size=     256KiB time=00:00:02.56 bitrate= 817.2kbits/s speed=0.0157x elapsed=0:02:43.36    \nframe=  156 fps=1.0 q=35.2 size=     256KiB time=00:00:02.56 bitrate= 817.2kbits/s speed=0.0157x elapsed=0:02:43.89    \nframe=  156 fps=0.9 q=35.2 size=     256KiB time=00:00:02.56 bitrate= 817.2kbits/s speed=0.0156x elapsed=0:02:44.43    \nframe=  157 fps=1.0 q=39.2 size=     256KiB time=00:00:02.58 bitrate= 811.9kbits/s speed=0.0157x elapsed=0:02:44.97    \nframe=  158 fps=1.0 q=40.6 size=     256KiB time=00:00:02.60 bitrate= 806.7kbits/s speed=0.0157x elapsed=0:02:45.49    \nframe=  158 fps=1.0 q=40.6 size=     256KiB time=00:00:02.60 bitrate= 806.7kbits/s speed=0.0157x elapsed=0:02:46.01    \nframe=  158 fps=0.9 q=40.6 size=     256KiB time=00:00:02.60 bitrate= 806.7kbits/s speed=0.0156x elapsed=0:02:46.53    \nframe=  159 fps=1.0 q=40.4 size=     256KiB time=00:00:02.61 bitrate= 801.6kbits/s speed=0.0157x elapsed=0:02:47.05    \nframe=  159 fps=0.9 q=40.4 size=     256KiB time=00:00:02.61 bitrate= 801.6kbits/s speed=0.0156x elapsed=0:02:47.60    \nframe=  160 fps=1.0 q=40.7 size=     256KiB time=00:00:02.61 bitrate= 801.6kbits/s speed=0.0156x elapsed=0:02:48.10    \nframe=  160 fps=0.9 q=40.7 size=     256KiB time=00:00:02.63 bitrate= 796.5kbits/s speed=0.0156x elapsed=0:02:48.62    \nframe=  160 fps=0.9 q=40.7 size=     256KiB time=00:00:02.63 bitrate= 796.5kbits/s speed=0.0156x elapsed=0:02:49.14    \nframe=  161 fps=0.9 q=35.4 size=     256KiB time=00:00:02.65 bitrate= 791.5kbits/s speed=0.0156x elapsed=0:02:49.66    \nframe=  162 fps=1.0 q=38.9 size=     256KiB time=00:00:02.66 bitrate= 786.6kbits/s speed=0.0157x elapsed=0:02:50.19    \nframe=  163 fps=1.0 q=40.5 size=     256KiB time=00:00:02.68 bitrate= 781.7kbits/s speed=0.0157x elapsed=0:02:50.70    \nframe=  163 fps=1.0 q=40.5 size=     256KiB time=00:00:02.68 bitrate= 781.7kbits/s speed=0.0157x elapsed=0:02:51.25    \nframe=  163 fps=0.9 q=40.5 size=     256KiB time=00:00:02.68 bitrate= 781.7kbits/s speed=0.0156x elapsed=0:02:51.78    \nframe=  163 fps=0.9 q=40.5 size=     256KiB time=00:00:02.68 bitrate= 781.7kbits/s speed=0.0156x elapsed=0:02:52.31    \nframe=  163 fps=0.9 q=40.5 size=     256KiB time=00:00:02.68 bitrate= 781.7kbits/s speed=0.0155x elapsed=0:02:52.82    \nframe=  163 fps=0.9 q=40.5 size=     256KiB time=00:00:02.68 bitrate= 781.7kbits/s speed=0.0155x elapsed=0:02:53.34    \nframe=  164 fps=0.9 q=40.2 size=     256KiB time=00:00:02.70 bitrate= 776.9kbits/s speed=0.0155x elapsed=0:02:53.87    \nframe=  164 fps=0.9 q=40.2 size=     256KiB time=00:00:02.70 bitrate= 776.9kbits/s speed=0.0155x elapsed=0:02:54.39    \nframe=  164 fps=0.9 q=40.2 size=     256KiB time=00:00:02.70 bitrate= 776.9kbits/s speed=0.0154x elapsed=0:02:54.93    \nframe=  165 fps=0.9 q=41.4 size=     256KiB time=00:00:02.71 bitrate= 772.1kbits/s speed=0.0155x elapsed=0:02:55.45    \nframe=  165 fps=0.9 q=41.4 size=     256KiB time=00:00:02.71 bitrate= 772.1kbits/s speed=0.0154x elapsed=0:02:55.96    \nframe=  165 fps=0.9 q=41.4 size=     256KiB time=00:00:02.71 bitrate= 772.1kbits/s speed=0.0154x elapsed=0:02:56.49    \nframe=  167 fps=0.9 q=39.2 size=     256KiB time=00:00:02.75 bitrate= 762.7kbits/s speed=0.0155x elapsed=0:02:57.02    \nframe=  167 fps=0.9 q=39.2 size=     256KiB time=00:00:02.75 bitrate= 762.7kbits/s speed=0.0155x elapsed=0:02:57.54    \nframe=  167 fps=0.9 q=39.2 size=     256KiB time=00:00:02.75 bitrate= 762.7kbits/s speed=0.0154x elapsed=0:02:58.07    \nframe=  168 fps=0.9 q=41.1 size=     256KiB time=00:00:02.76 bitrate= 758.1kbits/s speed=0.0155x elapsed=0:02:58.60    \nframe=  168 fps=0.9 q=41.1 size=     256KiB time=00:00:02.76 bitrate= 758.1kbits/s speed=0.0154x elapsed=0:02:59.13    \nframe=  168 fps=0.9 q=41.1 size=     256KiB time=00:00:02.76 bitrate= 758.1kbits/s speed=0.0154x elapsed=0:02:59.65    \nframe=  168 fps=0.9 q=41.1 size=     256KiB time=00:00:02.76 bitrate= 758.1kbits/s speed=0.0154x elapsed=0:03:00.18    \nframe=  168 fps=0.9 q=41.1 size=     256KiB time=00:00:02.76 bitrate= 758.1kbits/s speed=0.0153x elapsed=0:03:00.70    \nframe=  168 fps=0.9 q=41.1 size=     256KiB time=00:00:02.76 bitrate= 758.1kbits/s speed=0.0153x elapsed=0:03:01.25    \nframe=  169 fps=0.9 q=40.4 size=     256KiB time=00:00:02.78 bitrate= 753.6kbits/s speed=0.0153x elapsed=0:03:01.76    \nframe=  170 fps=0.9 q=40.6 size=     256KiB time=00:00:02.78 bitrate= 753.6kbits/s speed=0.0153x elapsed=0:03:02.28    \nframe=  170 fps=0.9 q=40.6 size=     256KiB time=00:00:02.80 bitrate= 749.1kbits/s speed=0.0153x elapsed=0:03:02.80    \nframe=  170 fps=0.9 q=40.6 size=     256KiB time=00:00:02.80 bitrate= 749.1kbits/s speed=0.0153x elapsed=0:03:03.32    \nframe=  171 fps=0.9 q=35.3 size=     256KiB time=00:00:02.81 bitrate= 744.7kbits/s speed=0.0153x elapsed=0:03:03.84    \nframe=  171 fps=0.9 q=35.3 size=     256KiB time=00:00:02.81 bitrate= 744.7kbits/s speed=0.0153x elapsed=0:03:04.36    \nframe=  172 fps=0.9 q=39.1 size=     256KiB time=00:00:02.83 bitrate= 740.3kbits/s speed=0.0153x elapsed=0:03:04.90    \nframe=  172 fps=0.9 q=39.1 size=     256KiB time=00:00:02.83 bitrate= 740.3kbits/s speed=0.0153x elapsed=0:03:05.43    \nframe=  173 fps=0.9 q=40.3 size=     512KiB time=00:00:02.85 bitrate=1471.8kbits/s speed=0.0153x elapsed=0:03:05.96    \nframe=  173 fps=0.9 q=40.3 size=     512KiB time=00:00:02.85 bitrate=1471.8kbits/s speed=0.0153x elapsed=0:03:06.48    \nframe=  174 fps=0.9 q=40.4 size=     512KiB time=00:00:02.86 bitrate=1463.3kbits/s speed=0.0153x elapsed=0:03:07.01    \nframe=  174 fps=0.9 q=40.4 size=     512KiB time=00:00:02.86 bitrate=1463.3kbits/s speed=0.0153x elapsed=0:03:07.53    \nframe=  175 fps=0.9 q=41.3 size=     512KiB time=00:00:02.88 bitrate=1454.8kbits/s speed=0.0153x elapsed=0:03:08.06    \nframe=  175 fps=0.9 q=41.3 size=     512KiB time=00:00:02.88 bitrate=1454.8kbits/s speed=0.0153x elapsed=0:03:08.65    \nframe=  175 fps=0.9 q=41.3 size=     512KiB time=00:00:02.88 bitrate=1454.8kbits/s speed=0.0152x elapsed=0:03:09.17    \nframe=  175 fps=0.9 q=41.3 size=     512KiB time=00:00:02.88 bitrate=1454.8kbits/s speed=0.0152x elapsed=0:03:09.70    \nframe=  176 fps=0.9 q=35.6 size=     512KiB time=00:00:02.90 bitrate=1446.4kbits/s speed=0.0152x elapsed=0:03:10.20    \nframe=  177 fps=0.9 q=39.1 size=     512KiB time=00:00:02.91 bitrate=1438.2kbits/s speed=0.0153x elapsed=0:03:10.72    \nframe=  177 fps=0.9 q=39.1 size=     512KiB time=00:00:02.91 bitrate=1438.2kbits/s speed=0.0153x elapsed=0:03:11.24    \nframe=  177 fps=0.9 q=39.1 size=     512KiB time=00:00:02.91 bitrate=1438.2kbits/s speed=0.0152x elapsed=0:03:11.75    \nframe=  178 fps=0.9 q=40.4 size=     512KiB time=00:00:02.93 bitrate=1430.0kbits/s speed=0.0153x elapsed=0:03:12.28    \nframe=  178 fps=0.9 q=40.4 size=     512KiB time=00:00:02.93 bitrate=1430.0kbits/s speed=0.0152x elapsed=0:03:12.81    \nframe=  178 fps=0.9 q=40.4 size=     512KiB time=00:00:02.93 bitrate=1430.0kbits/s speed=0.0152x elapsed=0:03:13.34    \nframe=  179 fps=0.9 q=40.8 size=     512KiB time=00:00:02.95 bitrate=1421.9kbits/s speed=0.0152x elapsed=0:03:13.86    \nframe=  179 fps=0.9 q=40.8 size=     512KiB time=00:00:02.95 bitrate=1421.9kbits/s speed=0.0152x elapsed=0:03:14.39    \nframe=  179 fps=0.9 q=40.8 size=     512KiB time=00:00:02.95 bitrate=1421.9kbits/s speed=0.0151x elapsed=0:03:14.95    \nframe=  179 fps=0.9 q=40.8 size=     512KiB time=00:00:02.95 bitrate=1421.9kbits/s speed=0.0151x elapsed=0:03:15.49    \nframe=  179 fps=0.9 q=40.8 size=     512KiB time=00:00:02.95 bitrate=1421.9kbits/s speed=0.015x elapsed=0:03:16.03    \nframe=  179 fps=0.9 q=40.8 size=     512KiB time=00:00:02.95 bitrate=1421.9kbits/s speed=0.015x elapsed=0:03:16.57    \nframe=  180 fps=0.9 q=41.2 size=     512KiB time=00:00:02.96 bitrate=1413.9kbits/s speed=0.015x elapsed=0:03:17.12    \nframe=  180 fps=0.9 q=41.2 size=     512KiB time=00:00:02.96 bitrate=1413.9kbits/s speed=0.015x elapsed=0:03:17.66    \nframe=  181 fps=0.9 q=35.7 size=     512KiB time=00:00:02.98 bitrate=1406.0kbits/s speed=0.0151x elapsed=0:03:18.21    \nframe=  182 fps=0.9 q=39.6 size=     512KiB time=00:00:03.00 bitrate=1398.2kbits/s speed=0.0151x elapsed=0:03:18.75    \nframe=  182 fps=0.9 q=39.6 size=     512KiB time=00:00:03.00 bitrate=1398.2kbits/s speed=0.0151x elapsed=0:03:19.28    \nframe=  183 fps=0.9 q=41.0 size=     512KiB time=00:00:03.01 bitrate=1390.5kbits/s speed=0.0151x elapsed=0:03:19.83    \nframe=  183 fps=0.9 q=41.0 size=     512KiB time=00:00:03.01 bitrate=1390.5kbits/s speed=0.0151x elapsed=0:03:20.34    \nframe=  183 fps=0.9 q=41.0 size=     512KiB time=00:00:03.01 bitrate=1390.5kbits/s speed=0.015x elapsed=0:03:20.86    \nframe=  183 fps=0.9 q=41.0 size=     512KiB time=00:00:03.01 bitrate=1390.5kbits/s speed=0.015x elapsed=0:03:21.43    \nframe=  183 fps=0.9 q=41.0 size=     512KiB time=00:00:03.01 bitrate=1390.5kbits/s speed=0.0149x elapsed=0:03:21.97    \nframe=  185 fps=0.9 q=41.3 size=     512KiB time=00:00:03.05 bitrate=1375.3kbits/s speed=0.0151x elapsed=0:03:22.51    \nframe=  185 fps=0.9 q=41.3 size=     512KiB time=00:00:03.05 bitrate=1375.3kbits/s speed=0.015x elapsed=0:03:23.06    \nframe=  185 fps=0.9 q=41.3 size=     512KiB time=00:00:03.05 bitrate=1375.3kbits/s speed=0.015x elapsed=0:03:23.59    \nframe=  185 fps=0.9 q=41.3 size=     512KiB time=00:00:03.05 bitrate=1375.3kbits/s speed=0.0149x elapsed=0:03:24.12    \nframe=  185 fps=0.9 q=41.3 size=     512KiB time=00:00:03.05 bitrate=1375.3kbits/s speed=0.0149x elapsed=0:03:24.68    \nframe=  185 fps=0.9 q=41.3 size=     512KiB time=00:00:03.05 bitrate=1375.3kbits/s speed=0.0149x elapsed=0:03:25.23    \nframe=  186 fps=0.9 q=35.6 size=     512KiB time=00:00:03.06 bitrate=1367.8kbits/s speed=0.0149x elapsed=0:03:25.75    \nframe=  186 fps=0.9 q=35.6 size=     512KiB time=00:00:03.06 bitrate=1367.8kbits/s speed=0.0149x elapsed=0:03:26.30    \nframe=  187 fps=0.9 q=39.6 size=     512KiB time=00:00:03.08 bitrate=1360.4kbits/s speed=0.0149x elapsed=0:03:26.84    \nframe=  187 fps=0.9 q=39.6 size=     512KiB time=00:00:03.08 bitrate=1360.4kbits/s speed=0.0149x elapsed=0:03:27.36    \nframe=  188 fps=0.9 q=41.2 size=     512KiB time=00:00:03.10 bitrate=1353.1kbits/s speed=0.0149x elapsed=0:03:27.88    \nframe=  188 fps=0.9 q=41.2 size=     512KiB time=00:00:03.10 bitrate=1353.1kbits/s speed=0.0149x elapsed=0:03:28.39    \nframe=  188 fps=0.9 q=41.2 size=     512KiB time=00:00:03.10 bitrate=1353.1kbits/s speed=0.0148x elapsed=0:03:28.93    \nframe=  188 fps=0.9 q=41.2 size=     512KiB time=00:00:03.10 bitrate=1353.1kbits/s speed=0.0148x elapsed=0:03:29.48    \nframe=  188 fps=0.9 q=41.2 size=     512KiB time=00:00:03.10 bitrate=1353.1kbits/s speed=0.0148x elapsed=0:03:29.99    \nframe=  188 fps=0.9 q=41.2 size=     512KiB time=00:00:03.10 bitrate=1353.1kbits/s speed=0.0147x elapsed=0:03:30.52    \nframe=  189 fps=0.9 q=40.8 size=     512KiB time=00:00:03.11 bitrate=1345.9kbits/s speed=0.0148x elapsed=0:03:31.08    \nframe=  189 fps=0.9 q=40.8 size=     512KiB time=00:00:03.11 bitrate=1345.9kbits/s speed=0.0147x elapsed=0:03:31.59    \nframe=  189 fps=0.9 q=40.8 size=     512KiB time=00:00:03.11 bitrate=1345.9kbits/s speed=0.0147x elapsed=0:03:32.14    \nframe=  190 fps=0.9 q=41.2 size=     512KiB time=00:00:03.13 bitrate=1338.7kbits/s speed=0.0147x elapsed=0:03:32.66    \nframe=  190 fps=0.9 q=41.2 size=     512KiB time=00:00:03.13 bitrate=1338.7kbits/s speed=0.0147x elapsed=0:03:33.17    \nframe=  190 fps=0.9 q=41.2 size=     512KiB time=00:00:03.13 bitrate=1338.7kbits/s speed=0.0147x elapsed=0:03:33.77    \nframe=  190 fps=0.9 q=41.2 size=     512KiB time=00:00:03.13 bitrate=1338.7kbits/s speed=0.0146x elapsed=0:03:34.31    \nframe=  190 fps=0.9 q=41.2 size=     512KiB time=00:00:03.13 bitrate=1338.7kbits/s speed=0.0146x elapsed=0:03:34.88    \nframe=  190 fps=0.9 q=41.2 size=     512KiB time=00:00:03.13 bitrate=1338.7kbits/s speed=0.0145x elapsed=0:03:35.47    \nframe=  190 fps=0.9 q=41.2 size=     512KiB time=00:00:03.13 bitrate=1338.7kbits/s speed=0.0145x elapsed=0:03:36.06    \nframe=  191 fps=0.9 q=35.3 size=     512KiB time=00:00:03.15 bitrate=1331.6kbits/s speed=0.0145x elapsed=0:03:36.66    \nframe=  191 fps=0.9 q=35.3 size=     512KiB time=00:00:03.15 bitrate=1331.6kbits/s speed=0.0145x elapsed=0:03:37.30    \nframe=  191 fps=0.9 q=35.3 size=     512KiB time=00:00:03.15 bitrate=1331.6kbits/s speed=0.0145x elapsed=0:03:37.86    \nframe=  191 fps=0.9 q=35.3 size=     512KiB time=00:00:03.15 bitrate=1331.6kbits/s speed=0.0144x elapsed=0:03:38.41    \nframe=  191 fps=0.9 q=35.3 size=     512KiB time=00:00:03.15 bitrate=1331.6kbits/s speed=0.0144x elapsed=0:03:38.98    \nframe=  192 fps=0.9 q=39.7 size=     512KiB time=00:00:03.16 bitrate=1324.6kbits/s speed=0.0144x elapsed=0:03:39.57    \nframe=  192 fps=0.9 q=39.7 size=     512KiB time=00:00:03.16 bitrate=1324.6kbits/s speed=0.0144x elapsed=0:03:40.09    \nframe=  192 fps=0.9 q=39.7 size=     512KiB time=00:00:03.16 bitrate=1324.6kbits/s speed=0.0144x elapsed=0:03:40.61    \nframe=  193 fps=0.9 q=40.9 size=     512KiB time=00:00:03.18 bitrate=1317.7kbits/s speed=0.0144x elapsed=0:03:41.13    \nframe=  193 fps=0.9 q=40.9 size=     512KiB time=00:00:03.18 bitrate=1317.7kbits/s speed=0.0144x elapsed=0:03:41.63    \nframe=  193 fps=0.9 q=40.9 size=     512KiB time=00:00:03.18 bitrate=1317.7kbits/s speed=0.0143x elapsed=0:03:42.17    \nframe=  194 fps=0.9 q=40.8 size=     512KiB time=00:00:03.20 bitrate=1310.8kbits/s speed=0.0144x elapsed=0:03:42.72    \nframe=  195 fps=0.9 q=41.0 size=     512KiB time=00:00:03.21 bitrate=1304.0kbits/s speed=0.0144x elapsed=0:03:43.26    \nframe=  195 fps=0.9 q=41.0 size=     512KiB time=00:00:03.21 bitrate=1304.0kbits/s speed=0.0144x elapsed=0:03:43.78    \nframe=  195 fps=0.9 q=41.0 size=     512KiB time=00:00:03.21 bitrate=1304.0kbits/s speed=0.0143x elapsed=0:03:44.32    \nframe=  195 fps=0.9 q=41.0 size=     512KiB time=00:00:03.21 bitrate=1304.0kbits/s speed=0.0143x elapsed=0:03:44.86    \nframe=  196 fps=0.9 q=35.4 size=     512KiB time=00:00:03.23 bitrate=1297.3kbits/s speed=0.0143x elapsed=0:03:45.38    \nframe=  196 fps=0.9 q=35.4 size=     512KiB time=00:00:03.23 bitrate=1297.3kbits/s speed=0.0143x elapsed=0:03:45.90    \nframe=  196 fps=0.9 q=35.4 size=     512KiB time=00:00:03.23 bitrate=1297.3kbits/s speed=0.0143x elapsed=0:03:46.42    \nframe=  196 fps=0.9 q=35.4 size=     512KiB time=00:00:03.23 bitrate=1297.3kbits/s speed=0.0142x elapsed=0:03:46.96    \nframe=  197 fps=0.9 q=39.6 size=     512KiB time=00:00:03.25 bitrate=1290.7kbits/s speed=0.0143x elapsed=0:03:47.49    \nframe=  197 fps=0.9 q=39.6 size=     512KiB time=00:00:03.25 bitrate=1290.7kbits/s speed=0.0143x elapsed=0:03:48.00    \nframe=  198 fps=0.9 q=40.9 size=     512KiB time=00:00:03.26 bitrate=1284.1kbits/s speed=0.0143x elapsed=0:03:48.51    \nframe=  198 fps=0.9 q=40.9 size=     512KiB time=00:00:03.26 bitrate=1284.1kbits/s speed=0.0143x elapsed=0:03:49.04    \nframe=  198 fps=0.9 q=40.9 size=     512KiB time=00:00:03.26 bitrate=1284.1kbits/s speed=0.0142x elapsed=0:03:49.58    \nframe=  198 fps=0.9 q=40.9 size=     512KiB time=00:00:03.26 bitrate=1284.1kbits/s speed=0.0142x elapsed=0:03:50.11    \nframe=  198 fps=0.9 q=40.9 size=     512KiB time=00:00:03.26 bitrate=1284.1kbits/s speed=0.0142x elapsed=0:03:50.64    \nframe=  199 fps=0.9 q=40.8 size=     512KiB time=00:00:03.28 bitrate=1277.6kbits/s speed=0.0142x elapsed=0:03:51.17    \nframe=  199 fps=0.9 q=40.8 size=     512KiB time=00:00:03.28 bitrate=1277.6kbits/s speed=0.0142x elapsed=0:03:51.70    \nframe=  200 fps=0.9 q=41.2 size=     512KiB time=00:00:03.30 bitrate=1271.1kbits/s speed=0.0142x elapsed=0:03:52.23    \nframe=  200 fps=0.9 q=41.2 size=     512KiB time=00:00:03.30 bitrate=1271.1kbits/s speed=0.0142x elapsed=0:03:52.76    \nframe=  201 fps=0.9 q=35.0 size=     512KiB time=00:00:03.31 bitrate=1264.7kbits/s speed=0.0142x elapsed=0:03:53.28    \nframe=  202 fps=0.9 q=39.1 size=     512KiB time=00:00:03.33 bitrate=1258.4kbits/s speed=0.0143x elapsed=0:03:53.82    \nframe=  202 fps=0.9 q=39.1 size=     512KiB time=00:00:03.33 bitrate=1258.4kbits/s speed=0.0142x elapsed=0:03:54.36    \nframe=  202 fps=0.9 q=39.1 size=     512KiB time=00:00:03.33 bitrate=1258.4kbits/s speed=0.0142x elapsed=0:03:54.89    \nframe=  203 fps=0.9 q=40.6 size=     512KiB time=00:00:03.35 bitrate=1252.1kbits/s speed=0.0142x elapsed=0:03:55.41    \nframe=  204 fps=0.9 q=40.7 size=     512KiB time=00:00:03.36 bitrate=1245.9kbits/s speed=0.0143x elapsed=0:03:55.96    \nframe=  205 fps=0.9 q=41.1 size=     512KiB time=00:00:03.38 bitrate=1239.8kbits/s speed=0.0143x elapsed=0:03:56.49    \nframe=  205 fps=0.9 q=41.1 size=     512KiB time=00:00:03.38 bitrate=1239.8kbits/s speed=0.0143x elapsed=0:03:57.00    \nframe=  205 fps=0.9 q=41.1 size=     512KiB time=00:00:03.38 bitrate=1239.8kbits/s speed=0.0142x elapsed=0:03:57.53    \nframe=  205 fps=0.9 q=41.1 size=     512KiB time=00:00:03.38 bitrate=1239.8kbits/s speed=0.0142x elapsed=0:03:58.08    \nframe=  206 fps=0.9 q=34.9 size=     512KiB time=00:00:03.40 bitrate=1233.7kbits/s speed=0.0142x elapsed=0:03:58.60    \nframe=  206 fps=0.9 q=34.9 size=     512KiB time=00:00:03.40 bitrate=1233.7kbits/s speed=0.0142x elapsed=0:03:59.13    \nframe=  206 fps=0.9 q=34.9 size=     512KiB time=00:00:03.40 bitrate=1233.7kbits/s speed=0.0142x elapsed=0:03:59.66    \nframe=  206 fps=0.9 q=34.9 size=     512KiB time=00:00:03.40 bitrate=1233.7kbits/s speed=0.0142x elapsed=0:04:00.17    \nframe=  207 fps=0.9 q=38.9 size=     512KiB time=00:00:03.41 bitrate=1227.7kbits/s speed=0.0142x elapsed=0:04:00.68    \nframe=  208 fps=0.9 q=40.5 size=     512KiB time=00:00:03.43 bitrate=1221.7kbits/s speed=0.0142x elapsed=0:04:01.20    \nframe=  208 fps=0.9 q=40.5 size=     512KiB time=00:00:03.43 bitrate=1221.7kbits/s speed=0.0142x elapsed=0:04:01.73    \nframe=  208 fps=0.9 q=40.5 size=     512KiB time=00:00:03.43 bitrate=1221.7kbits/s speed=0.0142x elapsed=0:04:02.25    \nframe=  208 fps=0.9 q=40.5 size=     512KiB time=00:00:03.43 bitrate=1221.7kbits/s speed=0.0141x elapsed=0:04:02.78    \nframe=  208 fps=0.9 q=40.5 size=     512KiB time=00:00:03.43 bitrate=1221.7kbits/s speed=0.0141x elapsed=0:04:03.32    \nframe=  209 fps=0.9 q=40.0 size=     512KiB time=00:00:03.45 bitrate=1215.8kbits/s speed=0.0141x elapsed=0:04:03.85    \nframe=  209 fps=0.9 q=40.0 size=     512KiB time=00:00:03.45 bitrate=1215.8kbits/s speed=0.0141x elapsed=0:04:04.38    \nframe=  210 fps=0.9 q=40.2 size=     512KiB time=00:00:03.46 bitrate=1210.0kbits/s speed=0.0142x elapsed=0:04:04.89    \nframe=  210 fps=0.9 q=40.2 size=     512KiB time=00:00:03.46 bitrate=1210.0kbits/s speed=0.0141x elapsed=0:04:05.41    \nframe=  212 fps=0.9 q=38.8 size=     512KiB time=00:00:03.50 bitrate=1198.5kbits/s speed=0.0142x elapsed=0:04:05.94    \nframe=  212 fps=0.9 q=38.8 size=     512KiB time=00:00:03.50 bitrate=1198.5kbits/s speed=0.0142x elapsed=0:04:06.47    \nframe=  212 fps=0.9 q=38.8 size=     512KiB time=00:00:03.50 bitrate=1198.5kbits/s speed=0.0142x elapsed=0:04:06.99    \nframe=  213 fps=0.9 q=40.1 size=     512KiB time=00:00:03.51 bitrate=1192.8kbits/s speed=0.0142x elapsed=0:04:07.53    \nframe=  213 fps=0.9 q=40.1 size=     512KiB time=00:00:03.51 bitrate=1192.8kbits/s speed=0.0142x elapsed=0:04:08.04    \nframe=  213 fps=0.9 q=40.1 size=     512KiB time=00:00:03.51 bitrate=1192.8kbits/s speed=0.0141x elapsed=0:04:08.57    \nframe=  213 fps=0.9 q=40.1 size=     512KiB time=00:00:03.51 bitrate=1192.8kbits/s speed=0.0141x elapsed=0:04:09.09    \nframe=  214 fps=0.9 q=40.1 size=     512KiB time=00:00:03.53 bitrate=1187.2kbits/s speed=0.0142x elapsed=0:04:09.62    \nframe=  214 fps=0.9 q=40.1 size=     512KiB time=00:00:03.53 bitrate=1187.2kbits/s speed=0.0141x elapsed=0:04:10.17    \nframe=  214 fps=0.9 q=40.1 size=     512KiB time=00:00:03.53 bitrate=1187.2kbits/s speed=0.0141x elapsed=0:04:10.71    \nframe=  215 fps=0.9 q=40.1 size=     512KiB time=00:00:03.55 bitrate=1181.6kbits/s speed=0.0141x elapsed=0:04:11.25    \nframe=  216 fps=0.9 q=34.7 size=     512KiB time=00:00:03.56 bitrate=1176.1kbits/s speed=0.0142x elapsed=0:04:11.78    \nframe=  217 fps=0.9 q=38.7 size=     512KiB time=00:00:03.58 bitrate=1170.6kbits/s speed=0.0142x elapsed=0:04:12.30    \nframe=  217 fps=0.9 q=38.7 size=     512KiB time=00:00:03.58 bitrate=1170.6kbits/s speed=0.0142x elapsed=0:04:12.82    \nframe=  218 fps=0.9 q=40.1 size=     512KiB time=00:00:03.60 bitrate=1165.2kbits/s speed=0.0142x elapsed=0:04:13.35    \nframe=  218 fps=0.9 q=40.1 size=     512KiB time=00:00:03.60 bitrate=1165.2kbits/s speed=0.0142x elapsed=0:04:13.91    \nframe=  218 fps=0.9 q=40.1 size=     512KiB time=00:00:03.60 bitrate=1165.2kbits/s speed=0.0141x elapsed=0:04:14.46    \nframe=  218 fps=0.9 q=40.1 size=     512KiB time=00:00:03.60 bitrate=1165.2kbits/s speed=0.0141x elapsed=0:04:14.98    \nframe=  218 fps=0.9 q=40.1 size=     512KiB time=00:00:03.60 bitrate=1165.2kbits/s speed=0.0141x elapsed=0:04:15.53    \nframe=  219 fps=0.9 q=39.7 size=     512KiB time=00:00:03.61 bitrate=1159.8kbits/s speed=0.0141x elapsed=0:04:16.05    \nframe=  219 fps=0.9 q=39.7 size=     512KiB time=00:00:03.61 bitrate=1159.8kbits/s speed=0.0141x elapsed=0:04:16.57    \nframe=  220 fps=0.9 q=39.9 size=     512KiB time=00:00:03.63 bitrate=1154.5kbits/s speed=0.0141x elapsed=0:04:17.11    \nframe=  220 fps=0.9 q=39.9 size=     512KiB time=00:00:03.63 bitrate=1154.5kbits/s speed=0.0141x elapsed=0:04:17.65    \nframe=  220 fps=0.9 q=39.9 size=     512KiB time=00:00:03.63 bitrate=1154.5kbits/s speed=0.0141x elapsed=0:04:18.17    \nframe=  220 fps=0.9 q=39.9 size=     512KiB time=00:00:03.63 bitrate=1154.5kbits/s speed=0.014x elapsed=0:04:18.69    \nframe=  221 fps=0.9 q=34.3 size=     512KiB time=00:00:03.65 bitrate=1149.2kbits/s speed=0.0141x elapsed=0:04:19.24    \nframe=  222 fps=0.9 q=38.3 size=     512KiB time=00:00:03.66 bitrate=1144.0kbits/s speed=0.0141x elapsed=0:04:19.76    \nframe=  223 fps=0.9 q=39.8 size=     512KiB time=00:00:03.68 bitrate=1138.8kbits/s speed=0.0142x elapsed=0:04:20.28    \nframe=  223 fps=0.9 q=39.8 size=     512KiB time=00:00:03.68 bitrate=1138.8kbits/s speed=0.0141x elapsed=0:04:20.82    \nframe=  223 fps=0.9 q=39.8 size=     512KiB time=00:00:03.68 bitrate=1138.8kbits/s speed=0.0141x elapsed=0:04:21.34    \nframe=  223 fps=0.9 q=39.8 size=     512KiB time=00:00:03.68 bitrate=1138.8kbits/s speed=0.0141x elapsed=0:04:21.86    \nframe=  224 fps=0.9 q=39.5 size=     512KiB time=00:00:03.70 bitrate=1133.7kbits/s speed=0.0141x elapsed=0:04:22.37    \nframe=  225 fps=0.9 q=40.1 size=     512KiB time=00:00:03.71 bitrate=1128.6kbits/s speed=0.0141x elapsed=0:04:22.92    \nframe=  225 fps=0.9 q=40.1 size=     512KiB time=00:00:03.71 bitrate=1128.6kbits/s speed=0.0141x elapsed=0:04:23.44    \nframe=  225 fps=0.9 q=40.1 size=     512KiB time=00:00:03.71 bitrate=1128.6kbits/s speed=0.0141x elapsed=0:04:24.00    \nframe=  225 fps=0.9 q=40.1 size=     512KiB time=00:00:03.71 bitrate=1128.6kbits/s speed=0.014x elapsed=0:04:24.54    \nframe=  226 fps=0.9 q=34.2 size=     512KiB time=00:00:03.73 bitrate=1123.6kbits/s speed=0.0141x elapsed=0:04:25.04    \nframe=  226 fps=0.9 q=34.2 size=     512KiB time=00:00:03.73 bitrate=1123.6kbits/s speed=0.0141x elapsed=0:04:25.56    \nframe=  227 fps=0.9 q=38.2 size=     512KiB time=00:00:03.75 bitrate=1118.6kbits/s speed=0.0141x elapsed=0:04:26.10    \nframe=  227 fps=0.9 q=38.2 size=     512KiB time=00:00:03.75 bitrate=1118.6kbits/s speed=0.0141x elapsed=0:04:26.68    \nframe=  228 fps=0.9 q=39.9 size=     512KiB time=00:00:03.76 bitrate=1113.6kbits/s speed=0.0141x elapsed=0:04:27.21    \nframe=  228 fps=0.9 q=39.9 size=     512KiB time=00:00:03.76 bitrate=1113.6kbits/s speed=0.0141x elapsed=0:04:27.73    \nframe=  228 fps=0.8 q=39.9 size=     512KiB time=00:00:03.76 bitrate=1113.6kbits/s speed=0.014x elapsed=0:04:28.26    \nframe=  229 fps=0.9 q=39.5 size=     512KiB time=00:00:03.78 bitrate=1108.7kbits/s speed=0.0141x elapsed=0:04:28.78    \nframe=  229 fps=0.9 q=39.5 size=     512KiB time=00:00:03.78 bitrate=1108.7kbits/s speed=0.014x elapsed=0:04:29.31    \nframe=  229 fps=0.8 q=39.5 size=     512KiB time=00:00:03.78 bitrate=1108.7kbits/s speed=0.014x elapsed=0:04:29.84    \nframe=  230 fps=0.9 q=39.4 size=     512KiB time=00:00:03.80 bitrate=1103.9kbits/s speed=0.0141x elapsed=0:04:30.36    \nframe=  230 fps=0.8 q=39.4 size=     512KiB time=00:00:03.80 bitrate=1103.9kbits/s speed=0.014x elapsed=0:04:30.90    \nframe=  230 fps=0.8 q=39.4 size=     512KiB time=00:00:03.80 bitrate=1103.9kbits/s speed=0.014x elapsed=0:04:31.41    \nframe=  230 fps=0.8 q=39.4 size=     512KiB time=00:00:03.80 bitrate=1103.9kbits/s speed=0.014x elapsed=0:04:31.94    \nframe=  231 fps=0.8 q=34.7 size=     512KiB time=00:00:03.81 bitrate=1099.0kbits/s speed=0.014x elapsed=0:04:32.45    \nframe=  231 fps=0.8 q=34.7 size=     512KiB time=00:00:03.81 bitrate=1099.0kbits/s speed=0.014x elapsed=0:04:33.02    \nframe=  232 fps=0.8 q=38.6 size=     512KiB time=00:00:03.83 bitrate=1094.3kbits/s speed=0.014x elapsed=0:04:33.54    \nframe=  232 fps=0.8 q=38.6 size=     512KiB time=00:00:03.83 bitrate=1094.3kbits/s speed=0.014x elapsed=0:04:34.08    \nframe=  233 fps=0.8 q=40.0 size=     512KiB time=00:00:03.85 bitrate=1089.5kbits/s speed=0.014x elapsed=0:04:34.59    \nframe=  233 fps=0.8 q=40.0 size=     512KiB time=00:00:03.85 bitrate=1089.5kbits/s speed=0.014x elapsed=0:04:35.12    \nframe=  233 fps=0.8 q=40.0 size=     512KiB time=00:00:03.85 bitrate=1089.5kbits/s speed=0.014x elapsed=0:04:35.65    \nframe=  233 fps=0.8 q=40.0 size=     512KiB time=00:00:03.85 bitrate=1089.5kbits/s speed=0.0139x elapsed=0:04:36.17    \nframe=  234 fps=0.8 q=39.9 size=     512KiB time=00:00:03.86 bitrate=1084.8kbits/s speed=0.014x elapsed=0:04:36.70    \nframe=  234 fps=0.8 q=39.9 size=     512KiB time=00:00:03.86 bitrate=1084.8kbits/s speed=0.0139x elapsed=0:04:37.21    \nframe=  235 fps=0.8 q=40.7 size=     512KiB time=00:00:03.88 bitrate=1080.2kbits/s speed=0.014x elapsed=0:04:37.73    \nframe=  235 fps=0.8 q=40.7 size=     512KiB time=00:00:03.88 bitrate=1080.2kbits/s speed=0.014x elapsed=0:04:38.26    \nframe=  236 fps=0.8 q=34.7 size=     512KiB time=00:00:03.90 bitrate=1075.6kbits/s speed=0.014x elapsed=0:04:38.79    \nframe=  237 fps=0.8 q=38.5 size=     512KiB time=00:00:03.91 bitrate=1071.0kbits/s speed=0.014x elapsed=0:04:39.30    \nframe=  238 fps=0.9 q=40.5 size=     512KiB time=00:00:03.93 bitrate=1066.4kbits/s speed=0.0141x elapsed=0:04:39.81    \nframe=  238 fps=0.8 q=40.5 size=     512KiB time=00:00:03.93 bitrate=1066.4kbits/s speed=0.014x elapsed=0:04:40.33    \nframe=  239 fps=0.9 q=40.0 size=     512KiB time=00:00:03.95 bitrate=1061.9kbits/s speed=0.0141x elapsed=0:04:40.87    \nframe=  240 fps=0.9 q=41.0 size=     512KiB time=00:00:03.96 bitrate=1057.5kbits/s speed=0.0141x elapsed=0:04:41.39    \nframe=  240 fps=0.9 q=41.0 size=     512KiB time=00:00:03.96 bitrate=1057.5kbits/s speed=0.0141x elapsed=0:04:41.95    \nframe=  240 fps=0.8 q=41.0 size=     512KiB time=00:00:03.96 bitrate=1057.5kbits/s speed=0.014x elapsed=0:04:42.52    \nframe=  240 fps=0.8 q=41.0 size=     512KiB time=00:00:03.96 bitrate=1057.5kbits/s speed=0.014x elapsed=0:04:43.06    \nframe=  240 fps=0.8 q=41.0 size=     512KiB time=00:00:03.96 bitrate=1057.5kbits/s speed=0.014x elapsed=0:04:43.61    \nframe=  240 fps=0.8 q=41.0 size=     512KiB time=00:00:03.96 bitrate=1057.5kbits/s speed=0.014x elapsed=0:04:44.17    \nframe=  241 fps=0.8 q=34.7 size=     512KiB time=00:00:03.98 bitrate=1053.1kbits/s speed=0.014x elapsed=0:04:44.74    \nframe=  241 fps=0.8 q=34.7 size=     512KiB time=00:00:03.98 bitrate=1053.1kbits/s speed=0.014x elapsed=0:04:45.30    \nframe=  241 fps=0.8 q=34.7 size=     512KiB time=00:00:03.98 bitrate=1053.1kbits/s speed=0.0139x elapsed=0:04:45.83    \nframe=  242 fps=0.8 q=38.7 size=     512KiB time=00:00:04.00 bitrate=1048.7kbits/s speed=0.014x elapsed=0:04:46.37    \nframe=  243 fps=0.8 q=40.2 size=     512KiB time=00:00:04.01 bitrate=1044.3kbits/s speed=0.014x elapsed=0:04:46.89    \nframe=  243 fps=0.8 q=40.2 size=     512KiB time=00:00:04.01 bitrate=1044.3kbits/s speed=0.014x elapsed=0:04:47.41    \nframe=  244 fps=0.8 q=40.5 size=     512KiB time=00:00:04.03 bitrate=1040.0kbits/s speed=0.014x elapsed=0:04:47.92    \nframe=  245 fps=0.8 q=41.0 size=     512KiB time=00:00:04.05 bitrate=1035.7kbits/s speed=0.014x elapsed=0:04:48.44    \nframe=  247 fps=0.9 q=39.4 size=     512KiB time=00:00:04.08 bitrate=1027.3kbits/s speed=0.0141x elapsed=0:04:48.96    \nframe=  248 fps=0.9 q=40.5 size=     512KiB time=00:00:04.10 bitrate=1023.1kbits/s speed=0.0142x elapsed=0:04:49.48    \nframe=  248 fps=0.9 q=40.5 size=     512KiB time=00:00:04.10 bitrate=1023.1kbits/s speed=0.0141x elapsed=0:04:50.01    \nframe=  249 fps=0.9 q=40.6 size=     512KiB time=00:00:04.11 bitrate=1018.9kbits/s speed=0.0142x elapsed=0:04:50.56    \nframe=  249 fps=0.9 q=40.6 size=     512KiB time=00:00:04.11 bitrate=1018.9kbits/s speed=0.0141x elapsed=0:04:51.09    \nframe=  250 fps=0.9 q=41.0 size=     512KiB time=00:00:04.13 bitrate=1014.8kbits/s speed=0.0142x elapsed=0:04:51.60    \nframe=  250 fps=0.9 q=41.0 size=     512KiB time=00:00:04.13 bitrate=1014.8kbits/s speed=0.0141x elapsed=0:04:52.12    \nframe=  250 fps=0.9 q=41.0 size=     512KiB time=00:00:04.13 bitrate=1014.8kbits/s speed=0.0141x elapsed=0:04:52.64    \nframe=  251 fps=0.9 q=31.9 size=     512KiB time=00:00:04.15 bitrate=1010.8kbits/s speed=0.0142x elapsed=0:04:53.16    \nframe=  251 fps=0.9 q=31.9 size=     512KiB time=00:00:04.15 bitrate=1010.8kbits/s speed=0.0141x elapsed=0:04:53.68    \nframe=  252 fps=0.9 q=34.8 size=     512KiB time=00:00:04.16 bitrate=1006.7kbits/s speed=0.0142x elapsed=0:04:54.22    \nframe=  252 fps=0.9 q=34.8 size=     512KiB time=00:00:04.16 bitrate=1006.7kbits/s speed=0.0141x elapsed=0:04:54.74    \nframe=  252 fps=0.9 q=34.8 size=     512KiB time=00:00:04.16 bitrate=1006.7kbits/s speed=0.0141x elapsed=0:04:55.26    \nframe=  254 fps=0.9 q=40.7 size=     512KiB time=00:00:04.20 bitrate= 998.7kbits/s speed=0.0142x elapsed=0:04:55.81    \nframe=  255 fps=0.9 q=39.6 size=     512KiB time=00:00:04.21 bitrate= 994.8kbits/s speed=0.0142x elapsed=0:04:56.33    \nframe=  255 fps=0.9 q=39.6 size=     512KiB time=00:00:04.21 bitrate= 994.8kbits/s speed=0.0142x elapsed=0:04:56.84    \nframe=  255 fps=0.9 q=39.6 size=     512KiB time=00:00:04.21 bitrate= 994.8kbits/s speed=0.0142x elapsed=0:04:57.37    \nframe=  255 fps=0.9 q=39.6 size=     512KiB time=00:00:04.21 bitrate= 994.8kbits/s speed=0.0142x elapsed=0:04:57.89    \nframe=  255 fps=0.9 q=39.6 size=     512KiB time=00:00:04.21 bitrate= 994.8kbits/s speed=0.0141x elapsed=0:04:58.41    \nframe=  257 fps=0.9 q=34.1 size=     512KiB time=00:00:04.25 bitrate= 987.0kbits/s speed=0.0142x elapsed=0:04:58.93    \nframe=  257 fps=0.9 q=34.1 size=     512KiB time=00:00:04.25 bitrate= 987.0kbits/s speed=0.0142x elapsed=0:04:59.46    \nframe=  257 fps=0.9 q=34.1 size=     512KiB time=00:00:04.25 bitrate= 987.0kbits/s speed=0.0142x elapsed=0:04:59.99    \nframe=  258 fps=0.9 q=38.3 size=     768KiB time=00:00:04.26 bitrate=1474.6kbits/s speed=0.0142x elapsed=0:05:00.53    \nframe=  258 fps=0.9 q=38.3 size=     768KiB time=00:00:04.26 bitrate=1474.6kbits/s speed=0.0142x elapsed=0:05:01.06    \nframe=  259 fps=0.9 q=39.3 size=     768KiB time=00:00:04.28 bitrate=1468.9kbits/s speed=0.0142x elapsed=0:05:01.60    \nframe=  260 fps=0.9 q=39.5 size=     768KiB time=00:00:04.30 bitrate=1463.2kbits/s speed=0.0142x elapsed=0:05:02.11    \nframe=  261 fps=0.9 q=40.0 size=     768KiB time=00:00:04.31 bitrate=1457.6kbits/s speed=0.0143x elapsed=0:05:02.64    \nframe=  261 fps=0.9 q=40.0 size=     768KiB time=00:00:04.31 bitrate=1457.6kbits/s speed=0.0142x elapsed=0:05:03.15    \nframe=  261 fps=0.9 q=40.0 size=     768KiB time=00:00:04.31 bitrate=1457.6kbits/s speed=0.0142x elapsed=0:05:03.67    \nframe=  262 fps=0.9 q=34.3 size=     768KiB time=00:00:04.33 bitrate=1452.0kbits/s speed=0.0142x elapsed=0:05:04.20    \nframe=  262 fps=0.9 q=34.3 size=     768KiB time=00:00:04.33 bitrate=1452.0kbits/s speed=0.0142x elapsed=0:05:04.72    \nframe=  264 fps=0.9 q=39.7 size=     768KiB time=00:00:04.36 bitrate=1440.9kbits/s speed=0.0143x elapsed=0:05:05.27    \nframe=  264 fps=0.9 q=39.7 size=     768KiB time=00:00:04.36 bitrate=1440.9kbits/s speed=0.0143x elapsed=0:05:05.81    \nframe=  264 fps=0.9 q=39.7 size=     768KiB time=00:00:04.36 bitrate=1440.9kbits/s speed=0.0143x elapsed=0:05:06.33    \nframe=  264 fps=0.9 q=39.7 size=     768KiB time=00:00:04.36 bitrate=1440.9kbits/s speed=0.0142x elapsed=0:05:06.84    \nframe=  264 fps=0.9 q=39.7 size=     768KiB time=00:00:04.36 bitrate=1440.9kbits/s speed=0.0142x elapsed=0:05:07.37    \nframe=  265 fps=0.9 q=39.4 size=     768KiB time=00:00:04.38 bitrate=1435.4kbits/s speed=0.0142x elapsed=0:05:07.92    \nframe=  265 fps=0.9 q=39.4 size=     768KiB time=00:00:04.38 bitrate=1435.4kbits/s speed=0.0142x elapsed=0:05:08.45    \nframe=  266 fps=0.9 q=38.7 size=     768KiB time=00:00:04.40 bitrate=1430.0kbits/s speed=0.0142x elapsed=0:05:08.97    \nframe=  267 fps=0.9 q=34.4 size=     768KiB time=00:00:04.41 bitrate=1424.6kbits/s speed=0.0143x elapsed=0:05:09.52    \nframe=  267 fps=0.9 q=34.4 size=     768KiB time=00:00:04.41 bitrate=1424.6kbits/s speed=0.0142x elapsed=0:05:10.04    \nframe=  268 fps=0.9 q=38.1 size=     768KiB time=00:00:04.43 bitrate=1419.2kbits/s speed=0.0143x elapsed=0:05:10.56    \nframe=  268 fps=0.9 q=38.1 size=     768KiB time=00:00:04.43 bitrate=1419.2kbits/s speed=0.0143x elapsed=0:05:11.09    \nframe=  268 fps=0.9 q=38.1 size=     768KiB time=00:00:04.43 bitrate=1419.2kbits/s speed=0.0142x elapsed=0:05:11.62    \nframe=  269 fps=0.9 q=38.6 size=     768KiB time=00:00:04.45 bitrate=1413.9kbits/s speed=0.0143x elapsed=0:05:12.15    \nframe=  269 fps=0.9 q=38.6 size=     768KiB time=00:00:04.45 bitrate=1413.9kbits/s speed=0.0142x elapsed=0:05:12.67    \nframe=  269 fps=0.9 q=38.6 size=     768KiB time=00:00:04.45 bitrate=1413.9kbits/s speed=0.0142x elapsed=0:05:13.20    \nframe=  270 fps=0.9 q=38.6 size=     768KiB time=00:00:04.46 bitrate=1408.6kbits/s speed=0.0142x elapsed=0:05:13.73    \nframe=  271 fps=0.9 q=38.7 size=     768KiB time=00:00:04.48 bitrate=1403.4kbits/s speed=0.0143x elapsed=0:05:14.27    \nframe=  271 fps=0.9 q=38.7 size=     768KiB time=00:00:04.48 bitrate=1403.4kbits/s speed=0.0142x elapsed=0:05:14.80    \nframe=  272 fps=0.9 q=34.2 size=     768KiB time=00:00:04.50 bitrate=1398.2kbits/s speed=0.0143x elapsed=0:05:15.31    \nframe=  272 fps=0.9 q=34.2 size=     768KiB time=00:00:04.50 bitrate=1398.2kbits/s speed=0.0142x elapsed=0:05:15.85    \nframe=  273 fps=0.9 q=38.3 size=     768KiB time=00:00:04.51 bitrate=1393.0kbits/s speed=0.0143x elapsed=0:05:16.37    \nframe=  273 fps=0.9 q=38.3 size=     768KiB time=00:00:04.51 bitrate=1393.0kbits/s speed=0.0143x elapsed=0:05:16.89    \nframe=  274 fps=0.9 q=38.6 size=     768KiB time=00:00:04.53 bitrate=1387.9kbits/s speed=0.0143x elapsed=0:05:17.43    \nframe=  274 fps=0.9 q=38.6 size=     768KiB time=00:00:04.53 bitrate=1387.9kbits/s speed=0.0143x elapsed=0:05:17.99    \nframe=  274 fps=0.9 q=38.6 size=     768KiB time=00:00:04.53 bitrate=1387.9kbits/s speed=0.0142x elapsed=0:05:18.55    \nframe=  274 fps=0.9 q=38.6 size=     768KiB time=00:00:04.53 bitrate=1387.9kbits/s speed=0.0142x elapsed=0:05:19.11    \nframe=  274 fps=0.9 q=38.6 size=     768KiB time=00:00:04.53 bitrate=1387.9kbits/s speed=0.0142x elapsed=0:05:19.68    \nframe=  275 fps=0.9 q=38.3 size=     768KiB time=00:00:04.55 bitrate=1382.8kbits/s speed=0.0142x elapsed=0:05:20.21    \nframe=  275 fps=0.9 q=38.3 size=     768KiB time=00:00:04.55 bitrate=1382.8kbits/s speed=0.0142x elapsed=0:05:20.75    \nframe=  275 fps=0.9 q=38.3 size=     768KiB time=00:00:04.55 bitrate=1382.8kbits/s speed=0.0142x elapsed=0:05:21.26    \nframe=  275 fps=0.9 q=38.3 size=     768KiB time=00:00:04.55 bitrate=1382.8kbits/s speed=0.0141x elapsed=0:05:21.84    \nframe=  275 fps=0.9 q=38.3 size=     768KiB time=00:00:04.55 bitrate=1382.8kbits/s speed=0.0141x elapsed=0:05:22.40    \nframe=  275 fps=0.9 q=38.3 size=     768KiB time=00:00:04.55 bitrate=1382.8kbits/s speed=0.0141x elapsed=0:05:22.92    \nframe=  275 fps=0.9 q=38.3 size=     768KiB time=00:00:04.55 bitrate=1382.8kbits/s speed=0.0141x elapsed=0:05:23.52    \nframe=  275 fps=0.8 q=38.3 size=     768KiB time=00:00:04.55 bitrate=1382.8kbits/s speed=0.014x elapsed=0:05:24.15    \nframe=  275 fps=0.8 q=38.3 size=     768KiB time=00:00:04.55 bitrate=1382.8kbits/s speed=0.014x elapsed=0:05:24.70    \nframe=  275 fps=0.8 q=38.3 size=     768KiB time=00:00:04.55 bitrate=1382.8kbits/s speed=0.014x elapsed=0:05:25.27    \nframe=  276 fps=0.8 q=38.8 size=     768KiB time=00:00:04.56 bitrate=1377.8kbits/s speed=0.014x elapsed=0:05:25.86    \nframe=  276 fps=0.8 q=38.8 size=     768KiB time=00:00:04.56 bitrate=1377.8kbits/s speed=0.014x elapsed=0:05:26.47    \nframe=  276 fps=0.8 q=38.8 size=     768KiB time=00:00:04.56 bitrate=1377.8kbits/s speed=0.014x elapsed=0:05:27.12    \nframe=  276 fps=0.8 q=38.8 size=     768KiB time=00:00:04.56 bitrate=1377.8kbits/s speed=0.0139x elapsed=0:05:27.69    \nframe=  276 fps=0.8 q=38.8 size=     768KiB time=00:00:04.56 bitrate=1377.8kbits/s speed=0.0139x elapsed=0:05:28.26    \nframe=  276 fps=0.8 q=38.8 size=     768KiB time=00:00:04.56 bitrate=1377.8kbits/s speed=0.0139x elapsed=0:05:28.84    \nframe=  276 fps=0.8 q=38.8 size=     768KiB time=00:00:04.56 bitrate=1377.8kbits/s speed=0.0139x elapsed=0:05:29.45    \nframe=  276 fps=0.8 q=38.8 size=     768KiB time=00:00:04.56 bitrate=1377.8kbits/s speed=0.0138x elapsed=0:05:30.10    \nframe=  277 fps=0.8 q=33.8 size=     768KiB time=00:00:04.58 bitrate=1372.8kbits/s speed=0.0139x elapsed=0:05:30.72    \nframe=  277 fps=0.8 q=33.8 size=     768KiB time=00:00:04.58 bitrate=1372.8kbits/s speed=0.0138x elapsed=0:05:31.28    \nframe=  277 fps=0.8 q=33.8 size=     768KiB time=00:00:04.58 bitrate=1372.8kbits/s speed=0.0138x elapsed=0:05:31.88    \nframe=  277 fps=0.8 q=33.8 size=     768KiB time=00:00:04.58 bitrate=1372.8kbits/s speed=0.0138x elapsed=0:05:32.46    \nframe=  277 fps=0.8 q=33.8 size=     768KiB time=00:00:04.58 bitrate=1372.8kbits/s speed=0.0138x elapsed=0:05:32.99    \nframe=  277 fps=0.8 q=33.8 size=     768KiB time=00:00:04.58 bitrate=1372.8kbits/s speed=0.0137x elapsed=0:05:33.56    \nframe=  278 fps=0.8 q=37.6 size=     768KiB time=00:00:04.60 bitrate=1367.8kbits/s speed=0.0138x elapsed=0:05:34.08    \nframe=  278 fps=0.8 q=37.6 size=     768KiB time=00:00:04.60 bitrate=1367.8kbits/s speed=0.0137x elapsed=0:05:34.62    \nframe=  278 fps=0.8 q=37.6 size=     768KiB time=00:00:04.60 bitrate=1367.8kbits/s speed=0.0137x elapsed=0:05:35.20    \nframe=  278 fps=0.8 q=37.6 size=     768KiB time=00:00:04.60 bitrate=1367.8kbits/s speed=0.0137x elapsed=0:05:35.75    \nframe=  279 fps=0.8 q=38.7 size=     768KiB time=00:00:04.61 bitrate=1362.8kbits/s speed=0.0137x elapsed=0:05:36.26    \nframe=  279 fps=0.8 q=38.7 size=     768KiB time=00:00:04.61 bitrate=1362.8kbits/s speed=0.0137x elapsed=0:05:36.78    \nframe=  279 fps=0.8 q=38.7 size=     768KiB time=00:00:04.61 bitrate=1362.8kbits/s speed=0.0137x elapsed=0:05:37.35    \nframe=  279 fps=0.8 q=38.7 size=     768KiB time=00:00:04.61 bitrate=1362.8kbits/s speed=0.0137x elapsed=0:05:37.90    \nframe=  280 fps=0.8 q=38.7 size=     768KiB time=00:00:04.63 bitrate=1357.9kbits/s speed=0.0137x elapsed=0:05:38.43    \nframe=  281 fps=0.8 q=33.6 size=     768KiB time=00:00:04.65 bitrate=1353.1kbits/s speed=0.0137x elapsed=0:05:38.99    \nframe=  281 fps=0.8 q=33.6 size=     768KiB time=00:00:04.65 bitrate=1353.1kbits/s speed=0.0137x elapsed=0:05:39.52    \nframe=  282 fps=0.8 q=37.1 size=     768KiB time=00:00:04.66 bitrate=1348.2kbits/s speed=0.0137x elapsed=0:05:40.05    \nframe=  282 fps=0.8 q=37.1 size=     768KiB time=00:00:04.66 bitrate=1348.2kbits/s speed=0.0137x elapsed=0:05:40.60    \nframe=  282 fps=0.8 q=37.1 size=     768KiB time=00:00:04.66 bitrate=1348.2kbits/s speed=0.0137x elapsed=0:05:41.12    \nframe=  283 fps=0.8 q=38.5 size=     768KiB time=00:00:04.68 bitrate=1343.4kbits/s speed=0.0137x elapsed=0:05:41.64    \nframe=  283 fps=0.8 q=38.5 size=     768KiB time=00:00:04.68 bitrate=1343.4kbits/s speed=0.0137x elapsed=0:05:42.17    \nframe=  283 fps=0.8 q=38.5 size=     768KiB time=00:00:04.68 bitrate=1343.4kbits/s speed=0.0137x elapsed=0:05:42.70    \nframe=  283 fps=0.8 q=38.5 size=     768KiB time=00:00:04.68 bitrate=1343.4kbits/s speed=0.0136x elapsed=0:05:43.24    \nframe=  284 fps=0.8 q=38.4 size=     768KiB time=00:00:04.70 bitrate=1338.7kbits/s speed=0.0137x elapsed=0:05:43.79    \nframe=  284 fps=0.8 q=38.4 size=     768KiB time=00:00:04.70 bitrate=1338.7kbits/s speed=0.0136x elapsed=0:05:44.33    \nframe=  284 fps=0.8 q=38.4 size=     768KiB time=00:00:04.70 bitrate=1338.7kbits/s speed=0.0136x elapsed=0:05:44.87    \nframe=  285 fps=0.8 q=38.6 size=     768KiB time=00:00:04.71 bitrate=1334.0kbits/s speed=0.0137x elapsed=0:05:45.41    \nframe=  285 fps=0.8 q=38.6 size=     768KiB time=00:00:04.71 bitrate=1334.0kbits/s speed=0.0136x elapsed=0:05:45.98    \nframe=  285 fps=0.8 q=38.6 size=     768KiB time=00:00:04.71 bitrate=1334.0kbits/s speed=0.0136x elapsed=0:05:46.52    \nframe=  286 fps=0.8 q=33.8 size=     768KiB time=00:00:04.73 bitrate=1329.3kbits/s speed=0.0136x elapsed=0:05:47.03    \nframe=  287 fps=0.8 q=35.7 size=     768KiB time=00:00:04.75 bitrate=1324.6kbits/s speed=0.0137x elapsed=0:05:47.55    \nframe=  288 fps=0.8 q=37.6 size=     768KiB time=00:00:04.76 bitrate=1320.0kbits/s speed=0.0137x elapsed=0:05:48.06    \nframe=  288 fps=0.8 q=37.6 size=     768KiB time=00:00:04.76 bitrate=1320.0kbits/s speed=0.0137x elapsed=0:05:48.57    \nframe=  288 fps=0.8 q=37.6 size=     768KiB time=00:00:04.76 bitrate=1320.0kbits/s speed=0.0137x elapsed=0:05:49.09    \nframe=  288 fps=0.8 q=37.6 size=     768KiB time=00:00:04.76 bitrate=1320.0kbits/s speed=0.0136x elapsed=0:05:49.61    \nframe=  288 fps=0.8 q=37.6 size=     768KiB time=00:00:04.76 bitrate=1320.0kbits/s speed=0.0136x elapsed=0:05:50.13    \nframe=  288 fps=0.8 q=37.6 size=     768KiB time=00:00:04.76 bitrate=1320.0kbits/s speed=0.0136x elapsed=0:05:50.66    \nframe=  289 fps=0.8 q=37.2 size=     768KiB time=00:00:04.78 bitrate=1315.4kbits/s speed=0.0136x elapsed=0:05:51.19    \nframe=  289 fps=0.8 q=37.2 size=     768KiB time=00:00:04.78 bitrate=1315.4kbits/s speed=0.0136x elapsed=0:05:51.70    \nframe=  289 fps=0.8 q=37.2 size=     768KiB time=00:00:04.78 bitrate=1315.4kbits/s speed=0.0136x elapsed=0:05:52.23    \nframe=  290 fps=0.8 q=37.5 size=     768KiB time=00:00:04.80 bitrate=1310.8kbits/s speed=0.0136x elapsed=0:05:52.75    \nframe=  290 fps=0.8 q=37.5 size=     768KiB time=00:00:04.80 bitrate=1310.8kbits/s speed=0.0136x elapsed=0:05:53.29    \nframe=  291 fps=0.8 q=33.2 size=     768KiB time=00:00:04.81 bitrate=1306.3kbits/s speed=0.0136x elapsed=0:05:53.81    \nframe=  291 fps=0.8 q=33.2 size=     768KiB time=00:00:04.81 bitrate=1306.3kbits/s speed=0.0136x elapsed=0:05:54.34    \nframe=  291 fps=0.8 q=33.2 size=     768KiB time=00:00:04.81 bitrate=1306.3kbits/s speed=0.0136x elapsed=0:05:54.86    \nframe=  292 fps=0.8 q=35.9 size=     768KiB time=00:00:04.83 bitrate=1301.8kbits/s speed=0.0136x elapsed=0:05:55.39    \nframe=  292 fps=0.8 q=35.9 size=     768KiB time=00:00:04.83 bitrate=1301.8kbits/s speed=0.0136x elapsed=0:05:55.90    \nframe=  292 fps=0.8 q=35.9 size=     768KiB time=00:00:04.83 bitrate=1301.8kbits/s speed=0.0136x elapsed=0:05:56.44    \nframe=  293 fps=0.8 q=36.2 size=     768KiB time=00:00:04.85 bitrate=1297.3kbits/s speed=0.0136x elapsed=0:05:56.96    \nframe=  293 fps=0.8 q=36.2 size=     768KiB time=00:00:04.85 bitrate=1297.3kbits/s speed=0.0136x elapsed=0:05:57.49    \nframe=  294 fps=0.8 q=36.2 size=     768KiB time=00:00:04.86 bitrate=1292.8kbits/s speed=0.0136x elapsed=0:05:58.02    \nframe=  294 fps=0.8 q=36.2 size=     768KiB time=00:00:04.86 bitrate=1292.8kbits/s speed=0.0136x elapsed=0:05:58.54    \nframe=  295 fps=0.8 q=37.4 size=     768KiB time=00:00:04.88 bitrate=1288.4kbits/s speed=0.0136x elapsed=0:05:59.06    \nframe=  295 fps=0.8 q=37.4 size=     768KiB time=00:00:04.88 bitrate=1288.4kbits/s speed=0.0136x elapsed=0:05:59.58    \nframe=  295 fps=0.8 q=37.4 size=     768KiB time=00:00:04.88 bitrate=1288.4kbits/s speed=0.0136x elapsed=0:06:00.14    \nframe=  296 fps=0.8 q=34.1 size=     768KiB time=00:00:04.90 bitrate=1284.0kbits/s speed=0.0136x elapsed=0:06:00.65    \nframe=  297 fps=0.8 q=33.3 size=     768KiB time=00:00:04.91 bitrate=1279.7kbits/s speed=0.0136x elapsed=0:06:01.17    \nframe=  299 fps=0.8 q=32.1 size=     768KiB time=00:00:04.95 bitrate=1271.1kbits/s speed=0.0137x elapsed=0:06:01.69    \nframe=  299 fps=0.8 q=32.1 size=     768KiB time=00:00:04.95 bitrate=1271.1kbits/s speed=0.0137x elapsed=0:06:02.24    \n[mp4 @ 00000181fb0d1300] Starting second pass: moving the moov atom to the beginning of the file\n[out#0/mp4 @ 00000181fb0cacc0] video:901KiB audio:0KiB subtitle:0KiB other streams:0KiB global headers:2KiB muxing overhead: 0.737805%\nframe=  300 fps=0.8 q=37.5 Lsize=     908KiB time=00:00:04.96 bitrate=1497.7kbits/s speed=0.0137x elapsed=0:06:02.52    \nx265 [info]: frame I:      2, Avg QP:37.88  kb/s: 9044.88 \nx265 [info]: frame P:     60, Avg QP:35.55  kb/s: 4737.23 \nx265 [info]: frame B:    238, Avg QP:40.09  kb/s: 588.84  \nx265 [info]: Weighted P-Frames: Y:0.0% UV:0.0%\n\nencoded 300 frames in 361.82s (0.83 fps), 1474.89 kb/s, Avg QP:39.17\n",
  "seconds": 362.849045753479,
  "probe_out": {}
}